<svg width="34" height="34" viewBox="0 0 34 34" fill="none" xmlns="http://www.w3.org/2000/svg">
<path d="M17.8499 20.4C18.5262 20.4 19.1748 20.6687 19.653 21.1469C20.1312 21.6251 20.3999 22.2737 20.3999 22.95V23.8C20.3999 27.1507 17.2379 30.6 11.8999 30.6C6.5619 30.6 3.3999 27.1507 3.3999 23.8V22.95C3.3999 22.2737 3.66856 21.6251 4.14678 21.1469C4.625 20.6687 5.2736 20.4 5.9499 20.4H17.8499ZM17.8499 22.1H5.9499C5.72447 22.1 5.50827 22.1895 5.34886 22.349C5.18946 22.5084 5.0999 22.7246 5.0999 22.95V23.8C5.0999 26.2446 7.5343 28.9 11.8999 28.9C16.2655 28.9 18.6999 26.2446 18.6999 23.8V22.95C18.6999 22.7246 18.6103 22.5084 18.4509 22.349C18.2915 22.1895 18.0753 22.1 17.8499 22.1ZM11.8999 9.34999C13.1398 9.34999 14.3289 9.84254 15.2056 10.7193C16.0824 11.596 16.5749 12.7851 16.5749 14.025C16.5749 15.2649 16.0824 16.454 15.2056 17.3307C14.3289 18.2075 13.1398 18.7 11.8999 18.7C10.66 18.7 9.47091 18.2075 8.59418 17.3307C7.71745 16.454 7.2249 15.2649 7.2249 14.025C7.2249 12.7851 7.71745 11.596 8.59418 10.7193C9.47091 9.84254 10.66 9.34999 11.8999 9.34999ZM27.1999 3.39999C28.0574 3.40015 28.8832 3.72431 29.5118 4.30752C30.1404 4.89073 30.5254 5.68992 30.5897 6.54499L30.5999 6.79999V10.2C30.6002 11.0578 30.2762 11.884 29.693 12.5129C29.1097 13.1419 28.3103 13.5272 27.4549 13.5915L27.1999 13.6H24.6482L22.6116 16.32C21.7106 17.5202 19.8848 17.034 19.5907 15.6808L19.5618 15.4921L19.5499 15.3V13.4895L19.4173 13.4555C18.8062 13.2704 18.2596 12.9172 17.8396 12.4362C17.4197 11.9553 17.1434 11.3659 17.0424 10.7355L17.0084 10.4533L16.9999 10.2V6.79999C16.9996 5.94221 17.3236 5.11603 17.9068 4.48706C18.4901 3.85809 19.2895 3.47283 20.1449 3.40849L20.3999 3.39999H27.1999ZM11.8999 11.05C11.5092 11.05 11.1224 11.1269 10.7614 11.2765C10.4005 11.426 10.0725 11.6451 9.79626 11.9214C9.52001 12.1976 9.30087 12.5256 9.15136 12.8865C9.00185 13.2475 8.9249 13.6343 8.9249 14.025C8.9249 14.4157 9.00185 14.8025 9.15136 15.1635C9.30087 15.5244 9.52001 15.8524 9.79626 16.1286C10.0725 16.4049 10.4005 16.624 10.7614 16.7735C11.1224 16.923 11.5092 17 11.8999 17C12.6889 17 13.4456 16.6866 14.0035 16.1286C14.5615 15.5707 14.8749 14.814 14.8749 14.025C14.8749 13.236 14.5615 12.4793 14.0035 11.9214C13.4456 11.3634 12.6889 11.05 11.8999 11.05ZM27.1999 5.09999H20.3999C19.9835 5.10005 19.5816 5.25292 19.2705 5.52961C18.9593 5.8063 18.7605 6.18757 18.7118 6.60109L18.6999 6.79999V10.2C18.7 10.6164 18.8528 11.0183 19.1295 11.3294C19.4062 11.6406 19.7875 11.8394 20.201 11.8881L20.3999 11.9H21.2499V15.3L23.7999 11.9H27.1999C27.6163 11.8999 28.0182 11.7471 28.3293 11.4704C28.6405 11.1937 28.8393 10.8124 28.888 10.3989L28.8999 10.2V6.79999C28.8998 6.38361 28.747 5.98172 28.4703 5.67056C28.1936 5.3594 27.8123 5.16061 27.3988 5.11189L27.1999 5.09999Z" fill="#6680D9"/>
</svg>
