<svg width="20" height="20" viewBox="0 0 20 20" fill="none" xmlns="http://www.w3.org/2000/svg">
<path d="M19.5703 4.65625C19.5703 4.42187 19.4688 4.21484 19.3125 4.06641L16.4492 0.710938C16.2969 0.535156 16.0781 0.429688 15.8438 0.429688H4.14844C3.91406 0.429688 3.69531 0.53125 3.54297 0.710938L0.621094 4.14062C0.496094 4.28906 0.429688 4.47266 0.429688 4.65625C0.429688 4.65625 0.429688 4.65625 0.429688 4.66016V18.7695C0.429688 19.2109 0.785156 19.5664 1.22656 19.5664H18.7656C19.207 19.5664 19.5625 19.2109 19.5625 18.7695C19.5625 18.7695 19.5703 4.69141 19.5703 4.65625ZM17.9688 6.10156C17.9688 6.81641 17.3867 7.39844 16.6719 7.39844H16.4727C15.7578 7.39844 15.1758 6.81641 15.1758 6.10156V5.45312H17.9688V6.10156ZM13.582 6.10156C13.582 6.81641 13 7.39844 12.2852 7.39844H12.0859C11.3711 7.39844 10.7891 6.81641 10.7891 6.10156V5.45312H13.5781V6.10156H13.582ZM9.20312 6.10156C9.20312 6.81641 8.62109 7.39844 7.90625 7.39844H7.70703C6.99219 7.39844 6.41016 6.81641 6.41016 6.10156V5.45312H9.19922V6.10156H9.20312ZM4.82031 6.10156C4.82031 6.81641 4.23828 7.39844 3.52344 7.39844H3.32812C2.61328 7.39844 2.03125 6.81641 2.03125 6.10156V5.45312H4.82031V6.10156ZM4.52734 2.02734H15.4844L17.0469 3.85937H2.96484L4.52734 2.02734ZM8.85938 17.9727V13.8437H11.1523V17.9727H8.85938ZM12.7461 17.9727V13.0469C12.7461 12.6055 12.3906 12.25 11.9492 12.25H8.0625C7.62109 12.25 7.26562 12.6055 7.26562 13.0469V17.9727H2.03125V8.68359C2.42188 8.87891 2.85938 8.99219 3.32812 8.99219H3.52734C4.35156 8.99219 5.09375 8.64453 5.62109 8.09375C6.14844 8.64844 6.89062 8.99219 7.71484 8.99219H7.91406C8.73828 8.99219 9.48047 8.64453 10.0078 8.09375C10.5352 8.64844 11.2773 8.99219 12.1016 8.99219H12.3008C13.125 8.99219 13.8672 8.64453 14.3945 8.09375C14.9219 8.64844 15.6641 8.99219 16.4883 8.99219H16.6875C17.1523 8.99219 17.5938 8.87891 17.9844 8.68359V17.9727H12.7461Z" fill="#FFF"/>
</svg>
