<svg width="24" height="24" viewBox="0 0 24 24" fill="none" xmlns="http://www.w3.org/2000/svg">
<path d="M2.75024 0V24H5.20596V23.1654C5.20596 22.7473 5.54615 22.4071 5.96427 22.4071C6.3824 22.4071 6.72258 22.7473 6.72258 23.1654V24H9.22981V23.1654C9.22981 22.7473 9.56997 22.4071 9.98807 22.4071C10.4062 22.4071 10.7464 22.7473 10.7464 23.1654V24H13.2536V23.1654C13.2536 22.7473 13.5938 22.4071 14.0119 22.4071C14.43 22.4071 14.7701 22.7473 14.7701 23.1654V24H17.2774V23.1654C17.2774 22.7473 17.6176 22.4071 18.0357 22.4071C18.4538 22.4071 18.794 22.7473 18.794 23.1654V24H21.2497V0H18.794V0.834606C18.794 1.25273 18.4539 1.59289 18.0357 1.59289C17.6176 1.59289 17.2775 1.25273 17.2775 0.834606V0H14.7702V0.834606C14.7702 1.25273 14.43 1.59289 14.0119 1.59289C13.5938 1.59289 13.2536 1.25273 13.2536 0.834606V0H10.7464V0.834606C10.7464 1.25273 10.4062 1.59289 9.9881 1.59289C9.57 1.59289 9.22981 1.25273 9.22981 0.834606V0H6.72258V0.834606C6.72258 1.25273 6.3824 1.59289 5.96427 1.59289C5.54615 1.59289 5.20596 1.25273 5.20596 0.834606V0H2.75024ZM5.96427 3.2621C6.80052 3.2621 7.53944 2.83697 7.97621 2.19155C8.41298 2.83697 9.15185 3.2621 9.98812 3.2621C10.8244 3.2621 11.5633 2.83707 12.0001 2.19155C12.4368 2.83707 13.1757 3.2621 14.012 3.2621C14.8483 3.2621 15.5872 2.83704 16.0239 2.19155C16.4606 2.83707 17.1995 3.2621 18.0359 3.2621C18.6222 3.2621 19.1607 3.05314 19.5807 2.70579V21.2942C19.1607 20.9469 18.6222 20.7379 18.0359 20.7379C17.1995 20.7379 16.4606 21.163 16.0239 21.8085C15.5872 21.1629 14.8484 20.7379 14.012 20.7379C13.1757 20.7379 12.4368 21.1629 12 21.8085C11.5633 21.1629 10.8245 20.7379 9.9881 20.7379C9.15187 20.7379 8.41295 21.163 7.97618 21.8085C7.53942 21.163 6.80052 20.7379 5.96425 20.7379C5.37789 20.7379 4.83943 20.9469 4.41943 21.2942V2.70579C4.83945 3.05314 5.37792 3.2621 5.96427 3.2621Z" fill="#6680D9"/>
<path d="M16.9319 5.26691H7.29199V6.93612H16.9319V5.26691Z" fill="#6680D9"/>
<path d="M16.9319 8.73355H7.29199V10.4028H16.9319V8.73355Z" fill="#6680D9"/>
<path d="M16.9319 12.2002H7.29199V13.8694H16.9319V12.2002Z" fill="#6680D9"/>
<path d="M16.932 17.2079H10.769V18.8771H16.932V17.2079Z" fill="#6680D9"/>
</svg>
