<svg width="24" height="24" viewBox="0 0 24 24" fill="none" xmlns="http://www.w3.org/2000/svg">
<g clip-path="url(#clip0_167_57)">
<path d="M13.3333 9.33333H10.6667C10.4899 9.33333 10.3203 9.40357 10.1953 9.52859C10.0702 9.65361 10 9.82318 10 9.99999V14C10 14.1768 10.0702 14.3464 10.1953 14.4714C10.3203 14.5964 10.4899 14.6667 10.6667 14.6667H13.3333C13.5101 14.6667 13.6797 14.5964 13.8047 14.4714C13.9298 14.3464 14 14.1768 14 14V9.99999C14 9.82318 13.9298 9.65361 13.8047 9.52859C13.6797 9.40357 13.5101 9.33333 13.3333 9.33333ZM13.0667 13.7333H10.9333V10.2667H13.0667V13.7333Z" fill="white"/>
<path d="M22.4733 8.25334L19.7466 5.52667C19.6224 5.40351 19.4548 5.33407 19.2799 5.33334H15.9466V4.03334C15.9556 3.68304 15.8264 3.34327 15.5869 3.08751C15.3473 2.83175 15.0167 2.68057 14.6666 2.66667H9.2266C9.05549 2.6734 8.88748 2.7144 8.7325 2.78723C8.57752 2.86007 8.43874 2.96326 8.32435 3.09069C8.20997 3.21813 8.12233 3.36722 8.0666 3.52913C8.01087 3.69105 7.9882 3.8625 7.99993 4.03334V5.33334H4.71993C4.63219 5.33283 4.54522 5.34965 4.46399 5.38282C4.38277 5.416 4.30889 5.46488 4.2466 5.52667L1.5266 8.25334C1.46481 8.31563 1.41593 8.38951 1.38275 8.47073C1.34957 8.55196 1.33276 8.63893 1.33326 8.72667V18.6667C1.33326 19.0203 1.47374 19.3594 1.72379 19.6095C1.97384 19.8595 2.31297 20 2.6666 20H21.3333C21.6869 20 22.026 19.8595 22.2761 19.6095C22.5261 19.3594 22.6666 19.0203 22.6666 18.6667V8.72001C22.6659 8.54511 22.5964 8.37751 22.4733 8.25334ZM9.33326 4.00001H14.6666V5.33334H9.33326V4.00001ZM21.3333 11.3333H14.6666V12.62H21.3333V18.6667H2.6666V12.62H9.33326V11.3333H2.6666V9.00001L4.99993 6.66667H18.9999L21.3333 9.00001V11.3333Z" fill="#6680D9"/>
</g>
<defs>
<clipPath id="clip0_167_57">
<rect width="24" height="24" fill="#6680D9"/>
</clipPath>
</defs>
</svg>
