<svg width="21" height="20" viewBox="0 0 21 20" fill="none" xmlns="http://www.w3.org/2000/svg">
<g id="simple-icons:convertio" clip-path="url(#clip0_1029_1363)">
<path id="Vector" d="M10.5752 0.03125C5.0527 0.03125 0.575195 4.49542 0.575195 10.0004C0.575195 15.5054 5.0527 19.9696 10.5752 19.9696C16.0985 19.9696 20.5752 15.5054 20.5752 10.0004C20.5752 4.49542 16.0977 0.03125 10.5752 0.03125ZM10.1244 4.03125C11.716 3.92292 13.3544 4.36042 14.651 5.64292C15.8394 6.84042 16.7427 8.50958 16.7244 10.0738H18.5019L14.7985 14.2096L11.0944 10.0738H13.0219C13.021 8.63708 12.666 7.78875 11.5385 6.67708C10.4344 5.56375 9.31603 4.91875 7.3902 4.75792C8.24897 4.34929 9.17598 4.10236 10.1244 4.03125ZM6.35353 5.79208L10.0577 9.92792H8.1302C8.1302 11.3646 8.4852 12.2129 9.61186 13.3246C10.7169 14.4379 11.8344 15.0846 13.7602 15.2454C11.5235 16.3021 8.57686 16.4104 6.50186 14.3587C5.3127 13.1612 4.40853 11.4921 4.4277 9.92792H2.64853L6.35353 5.79208Z" fill="#A8AABC"/>
</g>
<defs>
<clipPath id="clip0_1029_1363">
<rect width="20" height="20" fill="white" transform="translate(0.575195 0.000488281)"/>
</clipPath>
</defs>
</svg>
