    <svg width="1032" height="646" viewBox="0 0 1032 646" fill="none" xmlns="http://www.w3.org/2000/svg">
<rect width="1032" height="646" fill="url(#paint0_linear_1095_1244)"/>
<path d="M250.882 323.75H251.882C253.798 320.667 256.382 318.25 259.632 316.5C262.882 314.667 266.59 313.75 270.757 313.75C274.59 313.75 277.965 314.375 280.882 315.625C283.798 316.875 286.173 318.667 288.007 321C289.923 323.25 291.34 326 292.257 329.25C293.257 332.417 293.757 335.958 293.757 339.875V377H277.382V341.875C277.382 337.458 276.382 334.208 274.382 332.125C272.465 329.958 269.632 328.875 265.882 328.875C263.632 328.875 261.632 329.375 259.882 330.375C258.215 331.292 256.757 332.583 255.507 334.25C254.34 335.833 253.423 337.75 252.757 340C252.173 342.167 251.882 344.5 251.882 347V377H235.507V315.75H250.882V323.75ZM373.284 362.25C370.451 367.25 366.617 371.292 361.784 374.375C357.034 377.458 351.201 379 344.284 379C339.617 379 335.284 378.208 331.284 376.625C327.367 374.958 323.951 372.667 321.034 369.75C318.117 366.833 315.826 363.417 314.159 359.5C312.576 355.5 311.784 351.125 311.784 346.375C311.784 341.958 312.576 337.792 314.159 333.875C315.742 329.875 317.951 326.417 320.784 323.5C323.617 320.5 326.951 318.125 330.784 316.375C334.701 314.625 338.992 313.75 343.659 313.75C348.576 313.75 352.951 314.583 356.784 316.25C360.617 317.833 363.826 320.083 366.409 323C368.992 325.833 370.951 329.208 372.284 333.125C373.617 337.042 374.284 341.292 374.284 345.875C374.284 346.458 374.284 346.958 374.284 347.375C374.201 347.875 374.159 348.333 374.159 348.75C374.076 349.167 374.034 349.625 374.034 350.125H327.909C328.242 352.625 328.909 354.792 329.909 356.625C330.992 358.375 332.284 359.875 333.784 361.125C335.367 362.292 337.076 363.167 338.909 363.75C340.742 364.25 342.617 364.5 344.534 364.5C348.284 364.5 351.367 363.667 353.784 362C356.284 360.25 358.242 358.083 359.659 355.5L373.284 362.25ZM358.409 338.5C358.326 337.417 357.951 336.208 357.284 334.875C356.701 333.542 355.784 332.292 354.534 331.125C353.367 329.958 351.867 329 350.034 328.25C348.284 327.5 346.159 327.125 343.659 327.125C340.159 327.125 337.076 328.125 334.409 330.125C331.742 332.125 329.867 334.917 328.784 338.5H358.409ZM397.661 329.75H386.911V315.75H397.661V297H414.036V315.75H429.036V329.75H414.036V353.5C414.036 354.917 414.161 356.25 414.411 357.5C414.744 358.667 415.328 359.667 416.161 360.5C417.328 361.833 418.994 362.5 421.161 362.5C422.578 362.5 423.703 362.375 424.536 362.125C425.369 361.792 426.161 361.375 426.911 360.875L431.536 375.25C429.619 376.167 427.536 376.833 425.286 377.25C423.119 377.75 420.703 378 418.036 378C414.953 378 412.161 377.542 409.661 376.625C407.244 375.625 405.203 374.292 403.536 372.625C399.619 368.875 397.661 363.542 397.661 356.625V329.75ZM477.472 313.75C482.222 313.75 486.555 314.583 490.472 316.25C494.472 317.833 497.888 320.083 500.722 323C503.638 325.833 505.888 329.25 507.472 333.25C509.138 337.25 509.972 341.625 509.972 346.375C509.972 351.125 509.138 355.5 507.472 359.5C505.888 363.5 503.638 366.958 500.722 369.875C497.888 372.708 494.472 374.958 490.472 376.625C486.555 378.208 482.222 379 477.472 379C472.722 379 468.347 378.208 464.347 376.625C460.43 374.958 457.013 372.708 454.097 369.875C451.263 366.958 449.013 363.5 447.347 359.5C445.763 355.5 444.972 351.125 444.972 346.375C444.972 341.625 445.763 337.25 447.347 333.25C449.013 329.25 451.263 325.833 454.097 323C457.013 320.083 460.43 317.833 464.347 316.25C468.347 314.583 472.722 313.75 477.472 313.75ZM477.472 363.875C479.555 363.875 481.555 363.5 483.472 362.75C485.472 361.917 487.222 360.75 488.722 359.25C490.222 357.75 491.388 355.917 492.222 353.75C493.138 351.583 493.597 349.125 493.597 346.375C493.597 343.625 493.138 341.167 492.222 339C491.388 336.833 490.222 335 488.722 333.5C487.222 332 485.472 330.875 483.472 330.125C481.555 329.292 479.555 328.875 477.472 328.875C475.305 328.875 473.263 329.292 471.347 330.125C469.43 330.875 467.722 332 466.222 333.5C464.722 335 463.513 336.833 462.597 339C461.763 341.167 461.347 343.625 461.347 346.375C461.347 349.125 461.763 351.583 462.597 353.75C463.513 355.917 464.722 357.75 466.222 359.25C467.722 360.75 469.43 361.917 471.347 362.75C473.263 363.5 475.305 363.875 477.472 363.875ZM557.493 313.75C562.243 313.75 566.576 314.583 570.493 316.25C574.493 317.833 577.91 320.083 580.743 323C583.66 325.833 585.91 329.25 587.493 333.25C589.16 337.25 589.993 341.625 589.993 346.375C589.993 351.125 589.16 355.5 587.493 359.5C585.91 363.5 583.66 366.958 580.743 369.875C577.91 372.708 574.493 374.958 570.493 376.625C566.576 378.208 562.243 379 557.493 379C552.743 379 548.368 378.208 544.368 376.625C540.451 374.958 537.035 372.708 534.118 369.875C531.285 366.958 529.035 363.5 527.368 359.5C525.785 355.5 524.993 351.125 524.993 346.375C524.993 341.625 525.785 337.25 527.368 333.25C529.035 329.25 531.285 325.833 534.118 323C537.035 320.083 540.451 317.833 544.368 316.25C548.368 314.583 552.743 313.75 557.493 313.75ZM557.493 363.875C559.576 363.875 561.576 363.5 563.493 362.75C565.493 361.917 567.243 360.75 568.743 359.25C570.243 357.75 571.41 355.917 572.243 353.75C573.16 351.583 573.618 349.125 573.618 346.375C573.618 343.625 573.16 341.167 572.243 339C571.41 336.833 570.243 335 568.743 333.5C567.243 332 565.493 330.875 563.493 330.125C561.576 329.292 559.576 328.875 557.493 328.875C555.326 328.875 553.285 329.292 551.368 330.125C549.451 330.875 547.743 332 546.243 333.5C544.743 335 543.535 336.833 542.618 339C541.785 341.167 541.368 343.625 541.368 346.375C541.368 349.125 541.785 351.583 542.618 353.75C543.535 355.917 544.743 357.75 546.243 359.25C547.743 360.75 549.451 361.917 551.368 362.75C553.285 363.5 555.326 363.875 557.493 363.875ZM607.904 377V287.5H624.279V377H607.904ZM646.3 287.5H662.675V336.25H663.425L683.925 315.75H704.175V316.75L681.425 338.875L706.05 376V377H686.675L669.925 350.125L662.675 357.25V377H646.3V287.5ZM729.709 306.875C728.292 306.875 726.917 306.625 725.584 306.125C724.334 305.542 723.209 304.792 722.209 303.875C721.292 302.875 720.542 301.75 719.959 300.5C719.459 299.25 719.209 297.875 719.209 296.375C719.209 294.875 719.459 293.5 719.959 292.25C720.542 291 721.292 289.917 722.209 289C723.209 288 724.334 287.25 725.584 286.75C726.917 286.167 728.292 285.875 729.709 285.875C732.626 285.875 735.126 286.917 737.209 289C739.292 291 740.334 293.458 740.334 296.375C740.334 299.292 739.292 301.792 737.209 303.875C735.126 305.875 732.626 306.875 729.709 306.875ZM721.584 377V315.75H737.959V377H721.584ZM767.072 329.75H756.322V315.75H767.072V297H783.447V315.75H798.447V329.75H783.447V353.5C783.447 354.917 783.572 356.25 783.822 357.5C784.155 358.667 784.739 359.667 785.572 360.5C786.739 361.833 788.405 362.5 790.572 362.5C791.989 362.5 793.114 362.375 793.947 362.125C794.78 361.792 795.572 361.375 796.322 360.875L800.947 375.25C799.03 376.167 796.947 376.833 794.697 377.25C792.53 377.75 790.114 378 787.447 378C784.364 378 781.572 377.542 779.072 376.625C776.655 375.625 774.614 374.292 772.947 372.625C769.03 368.875 767.072 363.542 767.072 356.625V329.75Z" fill="white"/>
<path d="M519.865 114.453C519.865 114.453 528.312 118.096 531.632 122.59C543.379 138.494 562.006 170.892 562.006 170.892L535.172 215.997L495.434 144.971L502.171 133.438L509.479 121.677L519.865 114.453Z" fill="url(#paint1_linear_1095_1244)"/>
<path d="M389.435 246.965H439.164L496.595 148.283L505.345 133.25L511.106 124.455C511.106 124.455 513.911 121.303 516.102 119.653C517.559 118.556 519.158 118.168 521.142 118.168C523.125 118.168 524.493 118.756 526.262 119.653C528.072 120.571 531.791 122.642 531.791 122.642L527.607 117.263C527.607 117.263 520.932 111.955 516.102 109.493C512.627 107.722 510.614 106.74 506.839 105.758C499.441 103.834 494.789 104.41 487.266 105.758C484.605 106.235 483.099 106.526 480.542 107.402C475.625 109.085 472.846 110.459 468.888 113.826C465.479 116.726 461.567 122.642 461.567 122.642L389.435 246.965Z" fill="white"/>
<path d="M512.119 277.348C512.119 277.348 503.667 273.716 500.341 269.227C488.573 253.339 469.901 220.966 469.901 220.966L496.674 175.825L536.509 246.796L529.787 258.339L522.495 270.11L512.119 277.348Z" fill="url(#paint2_linear_1095_1244)"/>
<path d="M642.371 144.659L592.642 144.726L535.345 243.487L526.616 258.532L520.867 267.335C520.867 267.335 518.066 270.49 515.877 272.143C514.422 273.242 512.824 273.633 510.84 273.635C508.856 273.638 507.488 273.052 505.717 272.157C503.907 271.242 500.185 269.176 500.185 269.176L504.376 274.549C504.376 274.549 511.058 279.848 515.891 282.303C519.369 284.07 521.383 285.049 525.16 286.026C532.56 287.94 537.211 287.358 544.733 285.999C547.393 285.519 548.898 285.225 551.454 284.346C556.369 282.656 559.146 281.278 563.1 277.906C566.504 275.001 570.409 269.08 570.409 269.08L642.371 144.659Z" fill="white"/>
<path d="M261.099 422.75V407.81H265.669C267.95 407.81 269.779 408.499 271.156 409.876C272.547 411.253 273.243 413.054 273.243 415.28C273.243 417.52 272.547 419.328 271.156 420.705C269.779 422.068 267.95 422.75 265.669 422.75H261.099ZM263.019 409.646V420.914H265.669C267.408 420.914 268.778 420.42 269.779 419.432C270.781 418.431 271.282 417.047 271.282 415.28C271.282 413.527 270.781 412.15 269.779 411.149C268.778 410.147 267.408 409.646 265.669 409.646H263.019ZM274.093 417.638C274.093 416.066 274.587 414.765 275.575 413.736C276.576 412.707 277.835 412.192 279.351 412.192C280.868 412.192 282.12 412.707 283.107 413.736C284.109 414.765 284.61 416.066 284.61 417.638C284.61 419.224 284.109 420.524 283.107 421.54C282.12 422.569 280.868 423.084 279.351 423.084C277.835 423.084 276.576 422.569 275.575 421.54C274.587 420.51 274.093 419.21 274.093 417.638ZM276.013 417.638C276.013 418.737 276.333 419.627 276.973 420.309C277.613 420.99 278.406 421.331 279.351 421.331C280.297 421.331 281.09 420.99 281.73 420.309C282.37 419.627 282.69 418.737 282.69 417.638C282.69 416.553 282.37 415.67 281.73 414.988C281.076 414.293 280.283 413.945 279.351 413.945C278.419 413.945 277.627 414.293 276.973 414.988C276.333 415.67 276.013 416.553 276.013 417.638ZM285.941 412.526H287.777V413.945H287.86C288.153 413.444 288.598 413.027 289.196 412.693C289.808 412.359 290.441 412.192 291.095 412.192C292.347 412.192 293.306 412.554 293.974 413.277C294.656 413.986 294.996 415.002 294.996 416.323V422.75H293.077V416.449C293.035 414.779 292.194 413.945 290.552 413.945C289.787 413.945 289.147 414.258 288.633 414.884C288.118 415.496 287.86 416.233 287.86 417.095V422.75H285.941V412.526ZM298.543 407.81V412.526H296.791V407.81H298.543ZM304.467 422.917C303.632 422.917 302.937 422.66 302.38 422.145C301.838 421.63 301.559 420.914 301.545 419.996V414.279H299.751V412.526H301.545V409.396H303.465V412.526H305.969V414.279H303.465V419.37C303.465 420.051 303.597 420.517 303.862 420.768C304.126 421.004 304.425 421.122 304.759 421.122C304.912 421.122 305.058 421.109 305.197 421.081C305.35 421.039 305.489 420.99 305.614 420.935L306.219 422.646C305.719 422.827 305.134 422.917 304.467 422.917ZM326.443 412.526L323.146 422.75H321.185L318.639 414.905L316.115 422.75H314.174L310.877 412.526H312.88L315.155 420.246H315.176L317.7 412.526H319.683L322.207 420.246H322.228L324.482 412.526H326.443ZM328.679 419.62C328.679 420.121 328.887 420.538 329.305 420.872C329.736 421.206 330.237 421.373 330.807 421.373C331.614 421.373 332.33 421.074 332.956 420.476C333.596 419.878 333.916 419.175 333.916 418.368C333.318 417.895 332.483 417.659 331.412 417.659C330.633 417.659 329.979 417.847 329.451 418.222C328.936 418.598 328.679 419.064 328.679 419.62ZM331.162 412.192C332.58 412.192 333.7 412.575 334.521 413.34C335.342 414.091 335.752 415.127 335.752 416.449V422.75H333.916V421.331H333.832C333.04 422.5 331.982 423.084 330.661 423.084C329.534 423.084 328.588 422.75 327.823 422.082C327.072 421.415 326.696 420.58 326.696 419.578C326.696 418.521 327.093 417.68 327.886 417.054C328.693 416.428 329.764 416.115 331.099 416.115C332.24 416.115 333.179 416.323 333.916 416.741V416.303C333.916 415.635 333.652 415.071 333.123 414.612C332.594 414.14 331.975 413.903 331.266 413.903C330.195 413.903 329.346 414.355 328.72 415.259L327.03 414.195C327.962 412.86 329.339 412.192 331.162 412.192ZM345.431 419.912C345.431 420.803 345.042 421.554 344.263 422.166C343.484 422.778 342.503 423.084 341.321 423.084C340.291 423.084 339.387 422.82 338.608 422.291C337.829 421.748 337.273 421.039 336.939 420.163L338.65 419.432C338.9 420.044 339.262 420.524 339.735 420.872C340.222 421.206 340.75 421.373 341.321 421.373C341.933 421.373 342.44 421.241 342.844 420.976C343.261 420.712 343.47 420.399 343.47 420.037C343.47 419.384 342.969 418.904 341.967 418.598L340.215 418.16C338.226 417.659 337.231 416.699 337.231 415.28C337.231 414.348 337.607 413.604 338.358 413.048C339.123 412.477 340.097 412.192 341.279 412.192C342.183 412.192 342.997 412.408 343.72 412.839C344.457 413.27 344.972 413.847 345.264 414.571L343.553 415.28C343.359 414.849 343.039 414.515 342.593 414.279C342.162 414.028 341.675 413.903 341.133 413.903C340.632 413.903 340.18 414.028 339.777 414.279C339.387 414.529 339.192 414.835 339.192 415.197C339.192 415.781 339.742 416.198 340.841 416.449L342.385 416.845C344.416 417.346 345.431 418.368 345.431 419.912ZM350.839 422.917C350.005 422.917 349.309 422.66 348.753 422.145C348.21 421.63 347.932 420.914 347.918 419.996V414.279H346.124V412.526H347.918V409.396H349.838V412.526H352.342V414.279H349.838V419.37C349.838 420.051 349.97 420.517 350.234 420.768C350.499 421.004 350.798 421.122 351.132 421.122C351.285 421.122 351.431 421.109 351.57 421.081C351.723 421.039 351.862 420.99 351.987 420.935L352.592 422.646C352.091 422.827 351.507 422.917 350.839 422.917ZM358.448 423.084C356.945 423.084 355.707 422.569 354.734 421.54C353.76 420.51 353.273 419.21 353.273 417.638C353.273 416.08 353.746 414.786 354.692 413.757C355.638 412.714 356.848 412.192 358.322 412.192C359.839 412.192 361.042 412.686 361.932 413.674C362.836 414.647 363.288 416.017 363.288 417.784L363.268 417.993H355.234C355.262 418.994 355.596 419.801 356.236 420.413C356.876 421.025 357.641 421.331 358.531 421.331C359.755 421.331 360.715 420.719 361.411 419.495L363.122 420.33C362.662 421.192 362.023 421.867 361.202 422.354C360.395 422.84 359.477 423.084 358.448 423.084ZM355.38 416.407H361.244C361.188 415.697 360.896 415.113 360.367 414.654C359.853 414.181 359.157 413.945 358.281 413.945C357.557 413.945 356.931 414.167 356.403 414.612C355.888 415.058 355.547 415.656 355.38 416.407ZM378.35 412.526L371.945 427.257H369.962L372.341 422.103L368.126 412.526H370.213L373.259 419.871H373.301L376.264 412.526H378.35ZM378.403 417.638C378.403 416.066 378.897 414.765 379.884 413.736C380.886 412.707 382.145 412.192 383.661 412.192C385.177 412.192 386.429 412.707 387.417 413.736C388.418 414.765 388.919 416.066 388.919 417.638C388.919 419.224 388.418 420.524 387.417 421.54C386.429 422.569 385.177 423.084 383.661 423.084C382.145 423.084 380.886 422.569 379.884 421.54C378.897 420.51 378.403 419.21 378.403 417.638ZM380.323 417.638C380.323 418.737 380.642 419.627 381.282 420.309C381.922 420.99 382.715 421.331 383.661 421.331C384.607 421.331 385.4 420.99 386.04 420.309C386.68 419.627 386.999 418.737 386.999 417.638C386.999 416.553 386.68 415.67 386.04 414.988C385.386 414.293 384.593 413.945 383.661 413.945C382.729 413.945 381.936 414.293 381.282 414.988C380.642 415.67 380.323 416.553 380.323 417.638ZM399.324 422.75H397.488V421.331H397.405C397.113 421.832 396.661 422.249 396.049 422.583C395.45 422.917 394.824 423.084 394.171 423.084C392.919 423.084 391.952 422.729 391.27 422.02C390.603 421.296 390.269 420.274 390.269 418.952V412.526H392.188V418.827C392.23 420.497 393.072 421.331 394.713 421.331C395.478 421.331 396.118 421.025 396.633 420.413C397.147 419.787 397.405 419.043 397.405 418.18V412.526H399.324V422.75ZM403.372 422.75H401.453V412.526H403.289V414.195H403.372C403.567 413.653 403.963 413.194 404.562 412.818C405.174 412.429 405.772 412.234 406.356 412.234C406.912 412.234 407.385 412.317 407.775 412.484L407.191 414.341C406.954 414.244 406.579 414.195 406.064 414.195C405.341 414.195 404.708 414.487 404.165 415.071C403.636 415.656 403.372 416.337 403.372 417.116V422.75ZM417.248 422.917C416.413 422.917 415.718 422.66 415.161 422.145C414.619 421.63 414.341 420.914 414.327 419.996V414.279H412.532V412.526H414.327V409.396H416.246V412.526H418.75V414.279H416.246V419.37C416.246 420.051 416.379 420.517 416.643 420.768C416.907 421.004 417.206 421.122 417.54 421.122C417.693 421.122 417.839 421.109 417.978 421.081C418.131 421.039 418.27 420.99 418.396 420.935L419.001 422.646C418.5 422.827 417.916 422.917 417.248 422.917ZM422.953 409C422.953 409.375 422.82 409.695 422.556 409.959C422.292 410.224 421.972 410.356 421.596 410.356C421.221 410.356 420.901 410.224 420.636 409.959C420.372 409.695 420.24 409.375 420.24 409C420.24 408.624 420.372 408.304 420.636 408.04C420.901 407.776 421.221 407.643 421.596 407.643C421.972 407.643 422.292 407.776 422.556 408.04C422.82 408.304 422.953 408.624 422.953 409ZM422.556 412.526V422.75H420.636V412.526H422.556ZM426.765 422.75H424.846V412.526H426.682V413.945H426.765C427.057 413.444 427.502 413.027 428.101 412.693C428.713 412.359 429.318 412.192 429.916 412.192C430.667 412.192 431.328 412.366 431.898 412.714C432.468 413.061 432.886 413.541 433.15 414.153C433.999 412.846 435.174 412.192 436.676 412.192C437.859 412.192 438.77 412.554 439.41 413.277C440.05 414 440.37 415.03 440.37 416.365V422.75H438.45V416.657C438.45 415.697 438.276 415.009 437.928 414.592C437.58 414.16 436.996 413.945 436.176 413.945C435.438 413.945 434.819 414.258 434.319 414.884C433.818 415.51 433.567 416.247 433.567 417.095V422.75H431.648V416.657C431.648 415.697 431.474 415.009 431.126 414.592C430.778 414.16 430.194 413.945 429.373 413.945C428.636 413.945 428.017 414.258 427.516 414.884C427.016 415.51 426.765 416.247 426.765 417.095V422.75ZM446.996 423.084C445.493 423.084 444.255 422.569 443.282 421.54C442.308 420.51 441.821 419.21 441.821 417.638C441.821 416.08 442.294 414.786 443.24 413.757C444.186 412.714 445.396 412.192 446.87 412.192C448.387 412.192 449.59 412.686 450.48 413.674C451.384 414.647 451.836 416.017 451.836 417.784L451.816 417.993H443.782C443.81 418.994 444.144 419.801 444.784 420.413C445.424 421.025 446.189 421.331 447.079 421.331C448.303 421.331 449.263 420.719 449.959 419.495L451.669 420.33C451.21 421.192 450.571 421.867 449.75 422.354C448.943 422.84 448.025 423.084 446.996 423.084ZM443.928 416.407H449.792C449.736 415.697 449.444 415.113 448.915 414.654C448.401 414.181 447.705 413.945 446.829 413.945C446.105 413.945 445.479 414.167 444.951 414.612C444.436 415.058 444.095 415.656 443.928 416.407ZM472.24 412.526L468.943 422.75H466.982L464.436 414.905L461.911 422.75H459.971L456.674 412.526H458.677L460.952 420.246H460.973L463.497 412.526H465.479L468.004 420.246H468.025L470.279 412.526H472.24ZM475.764 409C475.764 409.375 475.632 409.695 475.368 409.959C475.103 410.224 474.784 410.356 474.408 410.356C474.032 410.356 473.712 410.224 473.448 409.959C473.184 409.695 473.052 409.375 473.052 409C473.052 408.624 473.184 408.304 473.448 408.04C473.712 407.776 474.032 407.643 474.408 407.643C474.784 407.643 475.103 407.776 475.368 408.04C475.632 408.304 475.764 408.624 475.764 409ZM475.368 412.526V422.75H473.448V412.526H475.368ZM481.603 422.917C480.769 422.917 480.073 422.66 479.517 422.145C478.974 421.63 478.696 420.914 478.682 419.996V414.279H476.888V412.526H478.682V409.396H480.602V412.526H483.106V414.279H480.602V419.37C480.602 420.051 480.734 420.517 480.998 420.768C481.263 421.004 481.562 421.122 481.895 421.122C482.048 421.122 482.194 421.109 482.334 421.081C482.487 421.039 482.626 420.99 482.751 420.935L483.356 422.646C482.855 422.827 482.271 422.917 481.603 422.917ZM484.825 407.81H486.745V412.526L486.661 413.945H486.745C487.037 413.444 487.482 413.027 488.08 412.693C488.692 412.359 489.325 412.192 489.979 412.192C491.231 412.192 492.19 412.554 492.858 413.277C493.54 413.986 493.881 415.002 493.881 416.323V422.75H491.961V416.699C491.961 414.863 491.147 413.945 489.52 413.945C488.741 413.945 488.08 414.272 487.537 414.925C487.009 415.565 486.745 416.316 486.745 417.179V422.75H484.825V407.81ZM504.975 423.084C503.459 423.084 502.2 422.569 501.198 421.54C500.211 420.483 499.717 419.182 499.717 417.638C499.717 416.066 500.211 414.765 501.198 413.736C502.2 412.707 503.459 412.192 504.975 412.192C506.018 412.192 506.93 412.456 507.709 412.985C508.487 413.5 509.072 414.216 509.461 415.134L507.709 415.864C507.166 414.585 506.213 413.945 504.85 413.945C503.974 413.945 503.215 414.299 502.576 415.009C501.95 415.718 501.637 416.595 501.637 417.638C501.637 418.681 501.95 419.558 502.576 420.267C503.215 420.976 503.974 421.331 504.85 421.331C506.255 421.331 507.243 420.691 507.813 419.412L509.524 420.142C509.148 421.06 508.557 421.783 507.75 422.312C506.957 422.827 506.032 423.084 504.975 423.084ZM512.29 419.62C512.29 420.121 512.499 420.538 512.916 420.872C513.347 421.206 513.848 421.373 514.418 421.373C515.225 421.373 515.942 421.074 516.568 420.476C517.207 419.878 517.527 419.175 517.527 418.368C516.929 417.895 516.095 417.659 515.023 417.659C514.245 417.659 513.591 417.847 513.062 418.222C512.547 418.598 512.29 419.064 512.29 419.62ZM514.773 412.192C516.192 412.192 517.312 412.575 518.132 413.34C518.953 414.091 519.364 415.127 519.364 416.449V422.75H517.527V421.331H517.444C516.651 422.5 515.594 423.084 514.272 423.084C513.146 423.084 512.2 422.75 511.435 422.082C510.683 421.415 510.308 420.58 510.308 419.578C510.308 418.521 510.704 417.68 511.497 417.054C512.304 416.428 513.375 416.115 514.711 416.115C515.851 416.115 516.79 416.323 517.527 416.741V416.303C517.527 415.635 517.263 415.071 516.734 414.612C516.206 414.14 515.587 413.903 514.877 413.903C513.806 413.903 512.958 414.355 512.332 415.259L510.642 414.195C511.574 412.86 512.951 412.192 514.773 412.192ZM523.24 407.81V422.75H521.32V407.81H523.24ZM529.942 423.084C528.426 423.084 527.167 422.569 526.165 421.54C525.178 420.483 524.684 419.182 524.684 417.638C524.684 416.066 525.178 414.765 526.165 413.736C527.167 412.707 528.426 412.192 529.942 412.192C530.985 412.192 531.896 412.456 532.675 412.985C533.454 413.5 534.039 414.216 534.428 415.134L532.675 415.864C532.133 414.585 531.18 413.945 529.817 413.945C528.94 413.945 528.182 414.299 527.542 415.009C526.916 415.718 526.603 416.595 526.603 417.638C526.603 418.681 526.916 419.558 527.542 420.267C528.182 420.976 528.94 421.331 529.817 421.331C531.222 421.331 532.209 420.691 532.78 419.412L534.491 420.142C534.115 421.06 533.524 421.783 532.717 422.312C531.924 422.827 530.999 423.084 529.942 423.084ZM544.933 422.75H543.097V421.331H543.013C542.721 421.832 542.269 422.249 541.657 422.583C541.059 422.917 540.433 423.084 539.779 423.084C538.527 423.084 537.561 422.729 536.879 422.02C536.211 421.296 535.877 420.274 535.877 418.952V412.526H537.797V418.827C537.839 420.497 538.68 421.331 540.322 421.331C541.087 421.331 541.727 421.025 542.241 420.413C542.756 419.787 543.013 419.043 543.013 418.18V412.526H544.933V422.75ZM548.981 407.81V422.75H547.061V407.81H548.981ZM552.407 419.62C552.407 420.121 552.616 420.538 553.033 420.872C553.464 421.206 553.965 421.373 554.536 421.373C555.342 421.373 556.059 421.074 556.685 420.476C557.325 419.878 557.645 419.175 557.645 418.368C557.046 417.895 556.212 417.659 555.141 417.659C554.362 417.659 553.708 417.847 553.179 418.222C552.665 418.598 552.407 419.064 552.407 419.62ZM554.89 412.192C556.309 412.192 557.429 412.575 558.25 413.34C559.07 414.091 559.481 415.127 559.481 416.449V422.75H557.645V421.331H557.561C556.768 422.5 555.711 423.084 554.389 423.084C553.263 423.084 552.317 422.75 551.552 422.082C550.801 421.415 550.425 420.58 550.425 419.578C550.425 418.521 550.821 417.68 551.614 417.054C552.421 416.428 553.492 416.115 554.828 416.115C555.968 416.115 556.907 416.323 557.645 416.741V416.303C557.645 415.635 557.38 415.071 556.852 414.612C556.323 414.14 555.704 413.903 554.995 413.903C553.924 413.903 553.075 414.355 552.449 415.259L550.759 414.195C551.691 412.86 553.068 412.192 554.89 412.192ZM565.281 422.917C564.447 422.917 563.751 422.66 563.195 422.145C562.652 421.63 562.374 420.914 562.36 419.996V414.279H560.566V412.526H562.36V409.396H564.28V412.526H566.784V414.279H564.28V419.37C564.28 420.051 564.412 420.517 564.676 420.768C564.94 421.004 565.24 421.122 565.573 421.122C565.726 421.122 565.872 421.109 566.012 421.081C566.165 421.039 566.304 420.99 566.429 420.935L567.034 422.646C566.533 422.827 565.949 422.917 565.281 422.917ZM570.986 409C570.986 409.375 570.854 409.695 570.589 409.959C570.325 410.224 570.005 410.356 569.63 410.356C569.254 410.356 568.934 410.224 568.67 409.959C568.406 409.695 568.273 409.375 568.273 409C568.273 408.624 568.406 408.304 568.67 408.04C568.934 407.776 569.254 407.643 569.63 407.643C570.005 407.643 570.325 407.776 570.589 408.04C570.854 408.304 570.986 408.624 570.986 409ZM570.589 412.526V422.75H568.67V412.526H570.589ZM572.879 412.526H574.715V413.945H574.799C575.091 413.444 575.536 413.027 576.134 412.693C576.746 412.359 577.379 412.192 578.033 412.192C579.285 412.192 580.244 412.554 580.912 413.277C581.594 413.986 581.935 415.002 581.935 416.323V422.75H580.015V416.449C579.973 414.779 579.132 413.945 577.49 413.945C576.725 413.945 576.085 414.258 575.571 414.884C575.056 415.496 574.799 416.233 574.799 417.095V422.75H572.879V412.526ZM588.468 421.331C589.414 421.331 590.186 420.99 590.784 420.309C591.41 419.627 591.723 418.737 591.723 417.638C591.723 416.567 591.41 415.684 590.784 414.988C590.172 414.293 589.4 413.945 588.468 413.945C587.55 413.945 586.778 414.293 586.152 414.988C585.526 415.684 585.213 416.567 585.213 417.638C585.213 418.723 585.526 419.606 586.152 420.288C586.778 420.983 587.55 421.331 588.468 421.331ZM588.405 427.591C587.835 427.591 587.299 427.514 586.799 427.361C586.298 427.222 585.839 427.02 585.421 426.756C585.018 426.492 584.67 426.179 584.378 425.817C584.086 425.456 583.863 425.052 583.71 424.607L585.526 423.856C585.734 424.454 586.096 424.934 586.611 425.296C587.125 425.657 587.724 425.838 588.405 425.838C589.448 425.838 590.262 425.525 590.846 424.899C591.431 424.273 591.723 423.411 591.723 422.312V421.331H591.639C591.278 421.874 590.784 422.305 590.158 422.625C589.546 422.931 588.878 423.084 588.155 423.084C586.819 423.084 585.672 422.562 584.712 421.519C583.766 420.448 583.293 419.154 583.293 417.638C583.293 416.122 583.766 414.835 584.712 413.778C585.672 412.721 586.819 412.192 588.155 412.192C588.878 412.192 589.546 412.352 590.158 412.672C590.784 412.978 591.278 413.402 591.639 413.945H591.723V412.526H593.559V422.312C593.559 423.953 593.093 425.24 592.161 426.172C591.215 427.118 589.963 427.591 588.405 427.591ZM607.891 419.912C607.891 420.803 607.502 421.554 606.723 422.166C605.944 422.778 604.963 423.084 603.781 423.084C602.752 423.084 601.847 422.82 601.068 422.291C600.289 421.748 599.733 421.039 599.399 420.163L601.11 419.432C601.361 420.044 601.722 420.524 602.195 420.872C602.682 421.206 603.211 421.373 603.781 421.373C604.393 421.373 604.901 421.241 605.304 420.976C605.721 420.712 605.93 420.399 605.93 420.037C605.93 419.384 605.429 418.904 604.428 418.598L602.675 418.16C600.686 417.659 599.691 416.699 599.691 415.28C599.691 414.348 600.067 413.604 600.818 413.048C601.583 412.477 602.557 412.192 603.739 412.192C604.643 412.192 605.457 412.408 606.18 412.839C606.918 413.27 607.432 413.847 607.724 414.571L606.014 415.28C605.819 414.849 605.499 414.515 605.054 414.279C604.622 414.028 604.136 413.903 603.593 413.903C603.092 413.903 602.64 414.028 602.237 414.279C601.847 414.529 601.653 414.835 601.653 415.197C601.653 415.781 602.202 416.198 603.301 416.449L604.845 416.845C606.876 417.346 607.891 418.368 607.891 419.912ZM613.3 422.917C612.465 422.917 611.77 422.66 611.213 422.145C610.671 421.63 610.392 420.914 610.378 419.996V414.279H608.584V412.526H610.378V409.396H612.298V412.526H614.802V414.279H612.298V419.37C612.298 420.051 612.43 420.517 612.695 420.768C612.959 421.004 613.258 421.122 613.592 421.122C613.745 421.122 613.891 421.109 614.03 421.081C614.183 421.039 614.322 420.99 614.447 420.935L615.052 422.646C614.552 422.827 613.967 422.917 613.3 422.917ZM625.392 422.75H623.555V421.331H623.472C623.18 421.832 622.728 422.249 622.116 422.583C621.517 422.917 620.892 423.084 620.238 423.084C618.986 423.084 618.019 422.729 617.337 422.02C616.67 421.296 616.336 420.274 616.336 418.952V412.526H618.256V418.827C618.297 420.497 619.139 421.331 620.78 421.331C621.545 421.331 622.185 421.025 622.7 420.413C623.215 419.787 623.472 419.043 623.472 418.18V412.526H625.392V422.75ZM630.793 412.526H635.383V411.044C635.383 410.029 635.703 409.208 636.343 408.582C636.997 407.956 637.832 407.643 638.847 407.643C639.543 407.643 640.113 407.762 640.558 407.998L640.037 409.688C639.703 409.521 639.327 409.438 638.91 409.438C638.437 409.438 638.047 409.605 637.741 409.939C637.449 410.259 637.303 410.69 637.303 411.232V412.526H639.974V414.279H637.303V422.75H635.383V414.279H630.793V422.75H628.873V414.279H626.954V412.526H628.873V411.044C628.873 410.029 629.193 409.208 629.833 408.582C630.487 407.956 631.322 407.643 632.337 407.643C633.033 407.643 633.603 407.762 634.048 407.998L633.526 409.688C633.193 409.521 632.817 409.438 632.4 409.438C631.927 409.438 631.537 409.605 631.231 409.939C630.939 410.259 630.793 410.69 630.793 411.232V412.526ZM640.775 425.087L639.877 424.503L641.004 422.75C640.712 422.694 640.462 422.548 640.253 422.312C640.058 422.075 639.961 421.79 639.961 421.456C639.961 421.053 640.1 420.719 640.378 420.455C640.656 420.177 640.99 420.037 641.38 420.037C641.783 420.037 642.117 420.177 642.381 420.455C642.659 420.719 642.799 421.053 642.799 421.456C642.799 421.832 642.659 422.242 642.381 422.687L640.775 425.087ZM654.549 423.084C653.798 423.084 653.109 422.924 652.483 422.604C651.871 422.284 651.398 421.86 651.064 421.331H650.981V422.75H649.145V407.81H651.064V412.526L650.981 413.945H651.064C651.398 413.416 651.871 412.992 652.483 412.672C653.109 412.352 653.798 412.192 654.549 412.192C655.898 412.192 657.039 412.721 657.971 413.778C658.931 414.849 659.411 416.136 659.411 417.638C659.411 419.154 658.931 420.441 657.971 421.498C657.039 422.555 655.898 423.084 654.549 423.084ZM654.236 421.331C655.154 421.331 655.926 420.983 656.552 420.288C657.178 419.606 657.491 418.723 657.491 417.638C657.491 416.567 657.178 415.684 656.552 414.988C655.926 414.293 655.154 413.945 654.236 413.945C653.304 413.945 652.525 414.293 651.899 414.988C651.287 415.684 650.981 416.567 650.981 417.638C650.981 418.723 651.287 419.613 651.899 420.309C652.525 420.99 653.304 421.331 654.236 421.331ZM669.829 422.75H667.992V421.331H667.909C667.617 421.832 667.165 422.249 666.553 422.583C665.955 422.917 665.329 423.084 664.675 423.084C663.423 423.084 662.456 422.729 661.774 422.02C661.107 421.296 660.773 420.274 660.773 418.952V412.526H662.693V418.827C662.734 420.497 663.576 421.331 665.217 421.331C665.982 421.331 666.622 421.025 667.137 420.413C667.652 419.787 667.909 419.043 667.909 418.18V412.526H669.829V422.75ZM676.106 422.917C675.272 422.917 674.576 422.66 674.02 422.145C673.477 421.63 673.199 420.914 673.185 419.996V414.279H671.391V412.526H673.185V409.396H675.105V412.526H677.609V414.279H675.105V419.37C675.105 420.051 675.237 420.517 675.501 420.768C675.766 421.004 676.065 421.122 676.399 421.122C676.552 421.122 676.698 421.109 676.837 421.081C676.99 421.039 677.129 420.99 677.254 420.935L677.859 422.646C677.358 422.827 676.774 422.917 676.106 422.917ZM686.085 409C686.085 409.375 685.953 409.695 685.689 409.959C685.424 410.224 685.104 410.356 684.729 410.356C684.353 410.356 684.033 410.224 683.769 409.959C683.505 409.695 683.373 409.375 683.373 409C683.373 408.624 683.505 408.304 683.769 408.04C684.033 407.776 684.353 407.643 684.729 407.643C685.104 407.643 685.424 407.776 685.689 408.04C685.953 408.304 686.085 408.624 686.085 409ZM685.689 412.526V422.75H683.769V412.526H685.689ZM692.694 407.643C693.389 407.643 693.96 407.762 694.405 407.998L693.883 409.688C693.549 409.521 693.174 409.438 692.756 409.438C692.283 409.438 691.894 409.605 691.588 409.939C691.296 410.259 691.15 410.69 691.15 411.232V412.526H693.821V414.279H691.15V422.75H689.23V414.279H687.311V412.526H689.23V411.044C689.23 410.029 689.55 409.208 690.19 408.582C690.844 407.956 691.678 407.643 692.694 407.643ZM708.967 412.526L702.561 427.257H700.579L702.957 422.103L698.743 412.526H700.829L703.875 419.871H703.917L706.88 412.526H708.967ZM709.019 417.638C709.019 416.066 709.513 414.765 710.501 413.736C711.502 412.707 712.761 412.192 714.277 412.192C715.793 412.192 717.045 412.707 718.033 413.736C719.035 414.765 719.535 416.066 719.535 417.638C719.535 419.224 719.035 420.524 718.033 421.54C717.045 422.569 715.793 423.084 714.277 423.084C712.761 423.084 711.502 422.569 710.501 421.54C709.513 420.51 709.019 419.21 709.019 417.638ZM710.939 417.638C710.939 418.737 711.259 419.627 711.899 420.309C712.538 420.99 713.331 421.331 714.277 421.331C715.223 421.331 716.016 420.99 716.656 420.309C717.296 419.627 717.616 418.737 717.616 417.638C717.616 416.553 717.296 415.67 716.656 414.988C716.002 414.293 715.209 413.945 714.277 413.945C713.345 413.945 712.552 414.293 711.899 414.988C711.259 415.67 710.939 416.553 710.939 417.638ZM729.941 422.75H728.105V421.331H728.021C727.729 421.832 727.277 422.249 726.665 422.583C726.067 422.917 725.441 423.084 724.787 423.084C723.535 423.084 722.568 422.729 721.887 422.02C721.219 421.296 720.885 420.274 720.885 418.952V412.526H722.805V418.827C722.846 420.497 723.688 421.331 725.329 421.331C726.095 421.331 726.734 421.025 727.249 420.413C727.764 419.787 728.021 419.043 728.021 418.18V412.526H729.941V422.75ZM741.035 421.331C741.981 421.331 742.753 420.99 743.351 420.309C743.977 419.627 744.29 418.737 744.29 417.638C744.29 416.567 743.977 415.684 743.351 414.988C742.739 414.293 741.967 413.945 741.035 413.945C740.117 413.945 739.345 414.293 738.719 414.988C738.093 415.684 737.78 416.567 737.78 417.638C737.78 418.723 738.093 419.606 738.719 420.288C739.345 420.983 740.117 421.331 741.035 421.331ZM740.722 423.084C739.387 423.084 738.239 422.555 737.28 421.498C736.334 420.427 735.861 419.14 735.861 417.638C735.861 416.136 736.334 414.849 737.28 413.778C738.239 412.721 739.387 412.192 740.722 412.192C741.473 412.192 742.155 412.352 742.767 412.672C743.393 412.992 743.873 413.416 744.207 413.945H744.29L744.207 412.526V407.81H746.126V422.75H744.29V421.331H744.207C743.873 421.86 743.393 422.284 742.767 422.604C742.155 422.924 741.473 423.084 740.722 423.084ZM750.741 409C750.741 409.375 750.609 409.695 750.345 409.959C750.081 410.224 749.761 410.356 749.385 410.356C749.01 410.356 748.69 410.224 748.425 409.959C748.161 409.695 748.029 409.375 748.029 409C748.029 408.624 748.161 408.304 748.425 408.04C748.69 407.776 749.01 407.643 749.385 407.643C749.761 407.643 750.081 407.776 750.345 408.04C750.609 408.304 750.741 408.624 750.741 409ZM750.345 412.526V422.75H748.425V412.526H750.345ZM757.123 421.331C758.069 421.331 758.841 420.99 759.439 420.309C760.065 419.627 760.378 418.737 760.378 417.638C760.378 416.567 760.065 415.684 759.439 414.988C758.827 414.293 758.055 413.945 757.123 413.945C756.205 413.945 755.433 414.293 754.807 414.988C754.181 415.684 753.868 416.567 753.868 417.638C753.868 418.723 754.181 419.606 754.807 420.288C755.433 420.983 756.205 421.331 757.123 421.331ZM756.81 423.084C755.475 423.084 754.327 422.555 753.367 421.498C752.421 420.427 751.948 419.14 751.948 417.638C751.948 416.136 752.421 414.849 753.367 413.778C754.327 412.721 755.475 412.192 756.81 412.192C757.561 412.192 758.243 412.352 758.855 412.672C759.481 412.992 759.961 413.416 760.294 413.945H760.378L760.294 412.526V407.81H762.214V422.75H760.378V421.331H760.294C759.961 421.86 759.481 422.284 758.855 422.604C758.243 422.924 757.561 423.084 756.81 423.084ZM770.725 418.118H769.223L769.014 412.526V407.81H770.934V412.526L770.725 418.118ZM771.393 421.456C771.393 421.846 771.254 422.18 770.976 422.458C770.711 422.736 770.377 422.875 769.974 422.875C769.584 422.875 769.251 422.736 768.972 422.458C768.694 422.18 768.555 421.846 768.555 421.456C768.555 421.053 768.694 420.719 768.972 420.455C769.251 420.177 769.584 420.037 769.974 420.037C770.377 420.037 770.711 420.177 770.976 420.455C771.254 420.719 771.393 421.053 771.393 421.456ZM391.127 449.623L393.637 446.444C393.811 446.227 393.952 446.053 394.061 445.923H394.093C394.213 445.825 394.316 445.776 394.403 445.776C394.577 445.776 394.664 445.901 394.664 446.151C394.664 446.39 394.153 447.493 393.132 449.46C393.055 449.612 392.969 449.781 392.871 449.965C392.784 450.139 392.691 450.313 392.594 450.487C391.974 451.748 391.485 452.574 391.127 452.965C390.8 453.269 390.442 453.53 390.051 453.747C389.659 453.954 389.328 454.057 389.056 454.057C388.654 454.057 388.453 453.872 388.453 453.503C388.453 453.112 389.344 451.818 391.127 449.623ZM397.011 449.395L395.267 452.997C395.137 453.269 394.876 453.53 394.485 453.78C394.093 454.03 393.767 454.155 393.506 454.155C392.985 454.155 392.724 453.899 392.724 453.389C392.724 453.095 393.517 451.807 395.104 449.525C395.126 449.493 395.224 449.351 395.397 449.101C395.582 448.841 395.74 448.612 395.87 448.417C396.881 446.961 397.484 446.14 397.68 445.955C397.853 445.771 398.006 445.678 398.136 445.678C398.223 445.678 398.266 445.76 398.266 445.923V445.955C398.169 446.716 397.75 447.863 397.011 449.395ZM410.251 448.987L408.148 456.127C408.279 456.149 408.409 456.16 408.539 456.16C409.115 456.16 409.784 455.894 410.544 455.361C411.501 454.698 412.24 453.992 412.761 453.242C413.294 452.481 413.56 451.742 413.56 451.025C413.56 449.536 412.778 448.792 411.213 448.792C410.778 448.792 410.458 448.857 410.251 448.987ZM407.806 457.366C407.762 457.507 407.719 457.665 407.675 457.839C407.632 458.013 407.589 458.176 407.545 458.328C407.034 460.056 406.562 461.458 406.127 462.534C405.703 463.61 405.252 464.522 404.774 465.272C404.502 465.729 404.111 466.212 403.6 466.723C404.915 467.125 405.85 467.386 406.404 467.505C406.969 467.625 407.529 467.685 408.083 467.685C408.724 467.685 409.289 467.592 409.778 467.408C410.278 467.212 410.746 466.902 411.18 466.479C411.821 465.848 412.343 465.098 412.745 464.229C413.147 463.36 413.348 462.517 413.348 461.702C413.348 460.811 413.039 460.056 412.419 459.436C412.115 459.132 411.772 458.898 411.392 458.735C411.023 458.572 410.506 458.437 409.844 458.328C409.235 458.208 408.811 458.094 408.572 457.986C408.333 457.877 408.078 457.67 407.806 457.366ZM400.699 459.502L402.606 453.633C402.975 452.579 403.421 451.552 403.942 450.552C403.888 450.563 403.763 450.623 403.568 450.732C402.818 451.036 402.285 451.188 401.97 451.188C401.524 451.188 401.302 451.02 401.302 450.683C401.302 450.324 401.476 449.808 401.823 449.134C402.171 448.46 402.519 447.955 402.867 447.618C403.66 446.89 404.866 446.314 406.485 445.89C408.116 445.466 409.936 445.254 411.946 445.254C413.164 445.254 414.261 445.358 415.239 445.564C416.228 445.771 417.07 446.08 417.766 446.493C418.461 446.895 418.988 447.384 419.347 447.96C419.717 448.536 419.901 449.178 419.901 449.884C419.901 450.873 419.695 451.753 419.282 452.525C418.869 453.296 418.217 454.019 417.326 454.693C416.337 455.432 415.402 455.921 414.522 456.16C414.424 456.192 414.256 456.225 414.017 456.258V456.339C417.831 456.828 419.738 458.404 419.738 461.067C419.738 461.599 419.646 462.153 419.461 462.729C419.287 463.305 419.027 463.87 418.679 464.425C418.342 464.979 417.934 465.484 417.456 465.941C416.424 466.951 415.196 467.891 413.772 468.761C412.359 469.63 410.936 470.331 409.501 470.864C408.067 471.396 406.839 471.662 405.817 471.662C404.959 471.662 404.133 471.564 403.339 471.369C402.557 471.173 401.932 470.912 401.465 470.586C400.997 470.271 400.764 469.929 400.764 469.559C400.764 469.223 400.856 468.907 401.041 468.614C401.237 468.321 401.59 467.956 402.1 467.522L402.035 467.457C401.742 467.565 401.454 467.62 401.171 467.62C400.574 467.62 400.09 467.446 399.72 467.098C399.351 466.75 399.166 466.277 399.166 465.68C399.166 465.343 399.318 464.56 399.623 463.332C399.927 462.093 400.286 460.817 400.699 459.502ZM434.559 460.366L428.609 460.333V460.74C428.609 461.534 428.838 462.257 429.294 462.909C429.751 463.55 430.256 463.87 430.81 463.87C431.375 463.87 432.19 463.664 433.255 463.251C434.331 462.838 435.554 462.246 436.923 461.474L437.494 461.132C437.885 460.914 438.151 460.751 438.292 460.643C438.934 460.241 439.336 460.04 439.499 460.04C439.694 460.04 439.792 460.219 439.792 460.577C439.792 460.969 439.721 461.414 439.58 461.914C439.439 462.414 439.26 462.898 439.042 463.365C438.825 463.821 438.607 464.147 438.39 464.343C437.771 464.897 436.711 465.5 435.211 466.152C433.712 466.805 432.19 467.315 430.647 467.685C430.125 467.793 429.647 467.848 429.213 467.848C427.724 467.848 426.36 467.549 425.121 466.951C423.893 466.343 422.937 465.511 422.252 464.457C421.578 463.403 421.241 462.229 421.241 460.936C421.241 459.871 421.464 458.697 421.91 457.415C422.355 456.133 422.98 454.856 423.784 453.584C424.588 452.302 425.496 451.139 426.507 450.096C427.387 449.183 428.37 448.357 429.457 447.618C430.544 446.868 431.598 446.292 432.62 445.89C433.652 445.488 434.597 445.287 435.456 445.287C436.803 445.287 437.955 445.673 438.912 446.444C439.879 447.205 440.363 448.129 440.363 449.216C440.363 449.694 440.276 450.215 440.102 450.78C439.928 451.346 439.694 451.84 439.401 452.264C439.097 452.72 438.646 453.166 438.048 453.601C437.45 454.035 436.776 454.41 436.026 454.725C435.124 455.084 434.353 455.263 433.712 455.263C433.071 455.263 432.75 455.106 432.75 454.791C432.75 454.606 432.929 454.318 433.288 453.927C433.679 453.579 434.054 453.101 434.413 452.492C434.76 451.851 435.065 451.096 435.326 450.226C435.586 449.357 435.717 448.678 435.717 448.189C435.717 447.787 435.597 447.585 435.358 447.585C434.978 447.585 434.293 448.004 433.304 448.841C432.315 449.677 431.533 450.503 430.957 451.318C430.413 452.079 429.968 452.856 429.62 453.649C429.272 454.432 429.039 455.204 428.919 455.964H437.624C438.58 455.964 439.058 456.209 439.058 456.698C439.058 457.154 438.526 457.899 437.461 458.931C436.407 459.887 435.44 460.366 434.559 460.366ZM451.043 457.138L450.88 457.839C450.826 458.078 450.777 458.284 450.733 458.458C450.69 458.621 450.652 458.768 450.619 458.898C450.598 459.018 450.57 459.143 450.538 459.273C449.755 462.621 449.125 464.713 448.647 465.549C448.429 465.919 448.103 466.25 447.669 466.544C446.299 467.435 445.224 467.88 444.441 467.88C443.898 467.88 443.436 467.685 443.056 467.294C442.686 466.891 442.501 466.397 442.501 465.81C442.501 464.745 442.969 462.778 443.903 459.909C444.186 458.996 444.441 458.203 444.669 457.529C444.908 456.855 445.191 456.095 445.517 455.247C445.854 454.399 446.229 453.497 446.642 452.541C447.066 451.585 447.364 450.911 447.538 450.52C446.104 450.726 444.724 450.829 443.398 450.829C442.061 450.829 441.393 450.362 441.393 449.427C441.393 448.83 441.828 448.069 442.697 447.145C443.284 446.548 443.827 446.135 444.327 445.906C444.827 445.667 445.43 445.548 446.136 445.548C446.593 445.548 447.218 445.564 448.011 445.597C448.804 445.618 449.907 445.678 451.32 445.776L451.777 445.809L452.217 445.858C453.412 445.923 454.2 445.999 454.58 446.086C454.961 446.173 455.287 446.341 455.559 446.591C455.776 446.841 455.885 447.129 455.885 447.455C455.885 447.803 455.814 448.161 455.673 448.531C455.542 448.89 455.379 449.156 455.184 449.33C454.912 449.634 454.146 449.889 452.885 450.096C452.776 450.096 452.662 450.107 452.543 450.128L452.217 450.194C452.478 450.454 452.608 450.742 452.608 451.058C452.608 451.362 452.456 452.019 452.152 453.03C452.054 453.28 451.82 454.1 451.451 455.492L451.206 456.47L451.043 457.138ZM466.516 457.138L466.353 457.839C466.299 458.078 466.25 458.284 466.206 458.458C466.163 458.621 466.125 458.768 466.092 458.898C466.071 459.018 466.043 459.143 466.011 459.273C465.228 462.621 464.598 464.713 464.12 465.549C463.903 465.919 463.577 466.25 463.142 466.544C461.773 467.435 460.697 467.88 459.914 467.88C459.371 467.88 458.909 467.685 458.529 467.294C458.159 466.891 457.974 466.397 457.974 465.81C457.974 464.745 458.442 462.778 459.376 459.909C459.659 458.996 459.914 458.203 460.142 457.529C460.381 456.855 460.664 456.095 460.99 455.247C461.327 454.399 461.702 453.497 462.115 452.541C462.539 451.585 462.838 450.911 463.011 450.52C461.577 450.726 460.197 450.829 458.871 450.829C457.534 450.829 456.866 450.362 456.866 449.427C456.866 448.83 457.301 448.069 458.17 447.145C458.757 446.548 459.3 446.135 459.8 445.906C460.3 445.667 460.903 445.548 461.61 445.548C462.066 445.548 462.691 445.564 463.484 445.597C464.277 445.618 465.381 445.678 466.793 445.776L467.25 445.809L467.69 445.858C468.885 445.923 469.673 445.999 470.054 446.086C470.434 446.173 470.76 446.341 471.032 446.591C471.249 446.841 471.358 447.129 471.358 447.455C471.358 447.803 471.287 448.161 471.146 448.531C471.015 448.89 470.852 449.156 470.657 449.33C470.385 449.634 469.619 449.889 468.358 450.096C468.25 450.096 468.135 450.107 468.016 450.128L467.69 450.194C467.951 450.454 468.081 450.742 468.081 451.058C468.081 451.362 467.929 452.019 467.625 453.03C467.527 453.28 467.293 454.1 466.924 455.492L466.679 456.47L466.516 457.138ZM485.836 460.366L479.886 460.333V460.74C479.886 461.534 480.115 462.257 480.571 462.909C481.027 463.55 481.533 463.87 482.087 463.87C482.652 463.87 483.467 463.664 484.532 463.251C485.608 462.838 486.831 462.246 488.2 461.474L488.771 461.132C489.162 460.914 489.428 460.751 489.569 460.643C490.21 460.241 490.613 460.04 490.776 460.04C490.971 460.04 491.069 460.219 491.069 460.577C491.069 460.969 490.998 461.414 490.857 461.914C490.716 462.414 490.536 462.898 490.319 463.365C490.102 463.821 489.884 464.147 489.667 464.343C489.048 464.897 487.988 465.5 486.488 466.152C484.989 466.805 483.467 467.315 481.924 467.685C481.402 467.793 480.924 467.848 480.49 467.848C479.001 467.848 477.637 467.549 476.398 466.951C475.17 466.343 474.214 465.511 473.529 464.457C472.855 463.403 472.518 462.229 472.518 460.936C472.518 459.871 472.741 458.697 473.187 457.415C473.632 456.133 474.257 454.856 475.061 453.584C475.865 452.302 476.773 451.139 477.784 450.096C478.664 449.183 479.647 448.357 480.734 447.618C481.821 446.868 482.875 446.292 483.896 445.89C484.929 445.488 485.874 445.287 486.733 445.287C488.08 445.287 489.232 445.673 490.189 446.444C491.156 447.205 491.64 448.129 491.64 449.216C491.64 449.694 491.553 450.215 491.379 450.78C491.205 451.346 490.971 451.84 490.678 452.264C490.373 452.72 489.922 453.166 489.325 453.601C488.727 454.035 488.053 454.41 487.303 454.725C486.401 455.084 485.63 455.263 484.989 455.263C484.347 455.263 484.027 455.106 484.027 454.791C484.027 454.606 484.206 454.318 484.565 453.927C484.956 453.579 485.331 453.101 485.69 452.492C486.037 451.851 486.342 451.096 486.602 450.226C486.863 449.357 486.994 448.678 486.994 448.189C486.994 447.787 486.874 447.585 486.635 447.585C486.255 447.585 485.57 448.004 484.581 448.841C483.592 449.677 482.81 450.503 482.234 451.318C481.69 452.079 481.245 452.856 480.897 453.649C480.549 454.432 480.316 455.204 480.196 455.964H488.901C489.857 455.964 490.335 456.209 490.335 456.698C490.335 457.154 489.803 457.899 488.738 458.931C487.684 459.887 486.717 460.366 485.836 460.366ZM497.511 450.389L497.951 449.281C497.625 449.313 497.288 449.362 496.941 449.427C496.723 449.471 496.424 449.493 496.044 449.493C495.512 449.493 495.245 449.226 495.245 448.694C495.245 448.466 495.311 448.199 495.441 447.895C495.582 447.58 495.74 447.341 495.914 447.178C496.294 446.819 497.087 446.526 498.294 446.298C499.511 446.069 500.934 445.955 502.565 445.955C503.814 445.955 505.004 446.124 506.135 446.461C507.276 446.798 508.259 447.265 509.085 447.863C509.911 448.449 510.552 449.129 511.009 449.9C511.476 450.661 511.71 451.492 511.71 452.394C511.71 453.362 511.508 454.263 511.106 455.1C510.704 455.926 510.134 456.649 509.395 457.268C508.906 457.681 508.449 457.996 508.025 458.214C507.602 458.431 506.993 458.659 506.2 458.898C506.406 459.279 506.586 459.572 506.738 459.779C506.901 459.985 507.167 460.273 507.536 460.643C508.514 461.523 509.916 462.322 511.742 463.039C511.829 463.082 511.938 463.126 512.068 463.169C511.873 464.093 511.688 464.767 511.514 465.191C511.34 465.615 511.068 466.076 510.699 466.576C510.025 467.467 509.215 467.913 508.27 467.913C507.748 467.913 507.102 467.723 506.33 467.342C505.569 466.951 504.945 466.495 504.456 465.973C504.075 465.528 503.722 465.055 503.396 464.555C503.081 464.055 502.76 463.49 502.434 462.86C502.108 462.218 501.826 461.599 501.586 461.001C501.358 460.393 501.19 459.86 501.081 459.404C501.059 459.317 501.049 459.192 501.049 459.029C501.049 458.801 501.114 458.621 501.244 458.491C501.375 458.361 501.614 458.241 501.961 458.132C502.45 457.958 502.853 457.768 503.168 457.562C503.483 457.344 503.88 457.013 504.358 456.567C504.901 455.97 505.325 455.274 505.629 454.481C505.944 453.677 506.102 452.867 506.102 452.052C506.102 451.085 505.879 450.335 505.434 449.802C504.988 449.259 504.276 448.879 503.298 448.661C502.364 452.063 501.44 455.263 500.527 458.263L500.185 459.502C499.619 461.458 499.141 462.909 498.75 463.854C498.37 464.799 497.989 465.462 497.609 465.843C497.229 466.223 496.636 466.598 495.832 466.968C495.028 467.337 494.398 467.522 493.941 467.522C493.05 467.522 492.605 467.022 492.605 466.022C492.605 465.609 492.724 464.903 492.963 463.903C493.213 462.892 493.593 461.577 494.104 459.958C494.615 458.328 495.148 456.736 495.702 455.182C496.267 453.628 496.87 452.03 497.511 450.389ZM534.114 455.932C534.538 454.845 534.896 453.628 535.19 452.28C535.494 450.922 535.646 449.802 535.646 448.922C535.646 448.346 535.51 448.058 535.239 448.058C534.989 448.058 534.532 448.39 533.869 449.053C532.88 450.118 532 451.346 531.229 452.737C530.457 454.117 529.865 455.53 529.452 456.975C529.039 458.42 528.832 459.833 528.832 461.213C528.832 462.3 528.946 463.044 529.175 463.446C529.414 463.849 529.859 464.05 530.511 464.05C531.076 464.05 531.777 463.892 532.614 463.577C534.505 462.827 536.505 461.757 538.613 460.366C539.548 459.768 540.14 459.469 540.39 459.469C540.748 459.469 540.928 459.648 540.928 460.007V460.04C540.873 460.529 540.705 461.083 540.422 461.702C539.857 462.898 539.368 463.68 538.955 464.05C538.26 464.669 537.303 465.278 536.086 465.875C534.88 466.473 533.641 466.962 532.37 467.342C531.098 467.723 530.033 467.913 529.175 467.913C528.186 467.913 527.251 467.728 526.371 467.359C525.491 466.978 524.724 466.462 524.072 465.81C523.42 465.158 522.91 464.397 522.54 463.528C522.171 462.659 521.986 461.729 521.986 460.74C521.986 459.991 522.105 459.181 522.344 458.312C522.584 457.431 522.931 456.513 523.388 455.557C523.844 454.6 524.36 453.704 524.936 452.867C525.273 452.367 525.621 451.889 525.98 451.433C526.349 450.976 526.751 450.531 527.186 450.096C527.631 449.661 528.115 449.243 528.637 448.841C529.158 448.439 529.636 448.096 530.071 447.814C530.832 447.303 531.62 446.857 532.435 446.477C533.25 446.097 534.005 445.814 534.701 445.629C535.396 445.445 536.032 445.352 536.608 445.352C538.032 445.352 539.145 445.722 539.95 446.461C540.754 447.2 541.156 448.221 541.156 449.525C541.156 450.895 540.819 452.329 540.145 453.829C539.472 455.318 538.575 456.622 537.456 457.741C536.684 458.534 535.918 459.159 535.157 459.616C534.396 460.072 533.712 460.3 533.103 460.3C532.571 460.3 532.304 460.045 532.304 459.534C532.304 459.295 532.451 458.964 532.745 458.54C533.158 457.953 533.614 457.084 534.114 455.932ZM554.803 452.166L551.804 458.507H556.238L554.869 452.166H554.803ZM553.401 447.879L552.407 446.086C552.657 445.89 552.891 445.754 553.108 445.678C553.945 445.396 554.955 445.254 556.14 445.254C557.335 445.254 558.259 445.597 558.911 446.281C559.476 446.879 559.938 447.716 560.297 448.792C560.655 449.868 560.987 451.4 561.291 453.389C561.454 454.399 561.595 455.16 561.715 455.671C562.095 457.094 562.345 458.007 562.465 458.409C562.595 458.801 562.823 459.431 563.15 460.3C563.258 460.55 563.399 460.904 563.573 461.36C563.758 461.806 563.932 462.224 564.095 462.615C564.454 463.463 564.997 464.582 565.725 465.973C564.812 466.614 564.041 467.076 563.41 467.359C562.78 467.641 562.204 467.783 561.682 467.783C561.041 467.783 560.503 467.658 560.069 467.408C559.645 467.158 559.259 466.761 558.911 466.218C558.498 465.479 558.085 464.473 557.672 463.202C557.629 463.082 557.575 462.93 557.509 462.746C557.455 462.561 557.39 462.36 557.314 462.142C556.042 462.675 555.053 462.941 554.347 462.941C553.945 462.941 553.597 462.93 553.304 462.909C553.054 462.887 551.896 462.854 549.831 462.811L549.668 463.137C549.06 464.408 548.495 465.375 547.973 466.038C547.451 466.701 546.848 467.169 546.164 467.44C545.49 467.712 544.642 467.848 543.621 467.848C543.034 467.848 542.615 467.783 542.366 467.652C542.116 467.522 541.991 467.31 541.991 467.016C541.991 466.658 542.588 465.669 543.784 464.05C544.208 463.485 544.523 463.039 544.729 462.713C543.588 462.496 543.018 462.093 543.018 461.507C543.018 461.028 543.474 460.317 544.387 459.371C544.822 458.915 545.224 458.627 545.593 458.507C545.974 458.377 546.631 458.306 547.566 458.295C548.435 456.698 548.989 455.682 549.228 455.247C549.467 454.801 549.777 454.247 550.157 453.584C550.538 452.911 550.967 452.15 551.445 451.302C551.934 450.444 552.586 449.303 553.401 447.879ZM575.754 453.764L575.216 455.068C574.509 456.741 573.852 458.409 573.243 460.072C572.95 460.876 572.504 462.278 571.906 464.278C572.808 464.202 574.02 464.012 575.542 463.707C576.52 463.512 577.112 463.414 577.318 463.414C577.699 463.414 577.889 463.566 577.889 463.87C577.889 464.229 577.677 464.734 577.253 465.386C576.84 466.028 576.373 466.582 575.851 467.049C575.493 467.386 574.96 467.62 574.254 467.75C573.547 467.88 572.444 467.946 570.945 467.946C569.543 467.946 568.462 467.902 567.701 467.815C567.69 467.815 567.511 467.761 567.163 467.652C566.543 467.391 566.234 466.848 566.234 466.022C566.234 465.424 566.402 464.332 566.739 462.746C567.087 461.159 567.587 459.186 568.239 456.828C569.717 451.568 570.831 448.319 571.58 447.08C571.82 446.656 572.118 446.33 572.477 446.102C572.847 445.863 573.346 445.678 573.977 445.548C574.585 445.417 575.286 445.352 576.08 445.352C576.819 445.352 577.335 445.45 577.628 445.646C577.932 445.83 578.085 446.156 578.085 446.624C578.085 447.069 577.889 447.906 577.498 449.134C577.107 450.351 576.525 451.894 575.754 453.764ZM588.39 453.764L587.852 455.068C587.146 456.741 586.488 458.409 585.88 460.072C585.586 460.876 585.141 462.278 584.543 464.278C585.445 464.202 586.657 464.012 588.178 463.707C589.156 463.512 589.749 463.414 589.955 463.414C590.336 463.414 590.526 463.566 590.526 463.87C590.526 464.229 590.314 464.734 589.89 465.386C589.477 466.028 589.01 466.582 588.488 467.049C588.129 467.386 587.597 467.62 586.891 467.75C586.184 467.88 585.081 467.946 583.581 467.946C582.18 467.946 581.098 467.902 580.337 467.815C580.327 467.815 580.147 467.761 579.8 467.652C579.18 467.391 578.87 466.848 578.87 466.022C578.87 465.424 579.039 464.332 579.376 462.746C579.723 461.159 580.223 459.186 580.875 456.828C582.353 451.568 583.467 448.319 584.217 447.08C584.456 446.656 584.755 446.33 585.114 446.102C585.483 445.863 585.983 445.678 586.613 445.548C587.222 445.417 587.923 445.352 588.716 445.352C589.455 445.352 589.971 445.45 590.265 445.646C590.569 445.83 590.721 446.156 590.721 446.624C590.721 447.069 590.526 447.906 590.134 449.134C589.743 450.351 589.162 451.894 588.39 453.764ZM612.555 460.072H612.588H612.522C611.697 461.507 610.974 462.664 610.354 463.544C609.735 464.425 609.143 465.147 608.578 465.712C607.882 466.408 607.187 466.94 606.491 467.31C605.796 467.668 605.133 467.848 604.502 467.848C603.176 467.848 602.144 467.451 601.405 466.658C600.666 465.854 600.297 464.729 600.297 463.283C600.297 461.414 600.807 458.665 601.829 455.035C602.177 453.829 602.53 452.699 602.889 451.644C603.247 450.59 603.633 449.569 604.046 448.58C604.459 447.591 604.779 446.89 605.008 446.477C605.171 446.194 605.388 445.972 605.66 445.809C605.942 445.635 606.339 445.493 606.85 445.385C607.632 445.233 608.366 445.157 609.05 445.157C610.202 445.157 610.778 445.656 610.778 446.656C610.778 447.221 610.534 448.064 610.045 449.183C609.599 450.248 609.246 451.172 608.985 451.954C608.963 452.019 608.925 452.133 608.871 452.296C608.817 452.449 608.751 452.639 608.675 452.867C608.469 453.519 608.192 454.497 607.844 455.801C607.496 457.105 607.225 458.214 607.029 459.127C606.833 460.04 606.736 460.632 606.736 460.904C606.736 461.306 606.85 461.507 607.078 461.507C607.328 461.507 607.893 460.942 608.773 459.811C609.61 458.735 610.561 457.372 611.626 455.72C612.702 454.057 613.588 452.579 614.283 451.286C614.739 450.449 615.071 449.878 615.277 449.574C615.495 449.259 615.712 449.02 615.929 448.857C616.505 448.433 617.185 448.221 617.967 448.221C618.967 448.221 619.467 448.678 619.467 449.59C619.467 449.775 619.434 450.156 619.369 450.732C619.076 453.101 618.929 455.29 618.929 457.301C618.929 458.214 618.956 459.04 619.01 459.779C619.065 460.518 619.146 461.24 619.255 461.947C619.364 462.653 619.51 463.398 619.695 464.18C619.923 465.234 620.037 465.881 620.037 466.12C620.037 466.294 619.978 466.457 619.858 466.609C619.684 466.87 619.342 467.082 618.831 467.245C617.886 467.603 617.163 467.783 616.663 467.783C616.033 467.783 615.435 467.554 614.87 467.098C614.316 466.642 613.854 466 613.484 465.174C613.06 464.207 612.783 462.941 612.653 461.376C612.62 461.115 612.588 460.681 612.555 460.072ZM626.414 457.301C625.48 456.355 624.822 455.519 624.442 454.791C624.062 454.052 623.871 453.264 623.871 452.427C623.871 451.166 624.252 449.982 625.012 448.873C625.784 447.765 626.811 446.885 628.093 446.232C629.387 445.58 630.772 445.254 632.25 445.254C633.924 445.254 635.212 445.602 636.114 446.298C637.016 446.993 637.467 447.977 637.467 449.248C637.467 449.857 637.304 450.487 636.978 451.139C636.651 451.791 636.2 452.4 635.625 452.965C635.233 453.356 634.869 453.655 634.532 453.861C634.195 454.057 633.913 454.155 633.685 454.155C633.402 454.155 633.261 453.937 633.261 453.503C633.261 453.514 633.283 453.345 633.326 452.997C633.391 452.487 633.424 452.03 633.424 451.628C633.424 451.063 633.337 450.498 633.163 449.933C633 449.357 632.783 448.879 632.511 448.498C632.25 448.107 632 447.911 631.761 447.911C631.642 447.911 631.506 448.004 631.354 448.189C631.06 448.493 630.832 448.873 630.669 449.33C630.506 449.775 630.424 450.194 630.424 450.585C630.424 451.074 630.495 451.53 630.636 451.954C630.778 452.367 631.022 452.791 631.37 453.226C631.718 453.66 632.18 454.139 632.756 454.66C633.668 455.486 634.369 456.209 634.858 456.828C635.358 457.448 635.722 458.067 635.951 458.687C636.179 459.295 636.293 459.958 636.293 460.675C636.293 461.936 635.961 463.153 635.298 464.327C634.636 465.5 633.755 466.451 632.658 467.179C631.571 467.897 630.446 468.255 629.283 468.255C628.175 468.255 627.094 468.016 626.039 467.538C624.985 467.06 623.996 466.375 623.073 465.484C622.116 464.539 621.638 463.702 621.638 462.974C621.638 462.528 621.85 462.093 622.274 461.67C622.709 461.235 623.241 460.865 623.871 460.561C624.513 460.257 625.05 460.105 625.485 460.105C625.735 460.105 625.947 460.17 626.121 460.3C626.295 460.42 626.447 460.632 626.577 460.936C626.719 461.23 626.854 461.632 626.985 462.142C627.191 462.871 627.382 463.414 627.555 463.773C627.729 464.12 627.974 464.468 628.289 464.816C628.615 465.142 628.957 465.305 629.316 465.305C629.751 465.305 630.093 465.136 630.343 464.799C630.593 464.452 630.718 463.979 630.718 463.381C630.718 462.447 630.386 461.512 629.723 460.577C629.528 460.262 629.311 459.985 629.071 459.746C628.843 459.496 628.338 459.023 627.555 458.328C627.316 458.132 626.936 457.79 626.414 457.301ZM641.985 449.851L641.757 450.194L641.529 450.552C640.236 452.454 639.453 453.535 639.181 453.796C638.964 454.014 638.796 454.122 638.676 454.122C638.546 454.122 638.48 454.057 638.48 453.927V453.894C638.557 453.166 638.948 452.112 639.654 450.732L641.561 446.819C641.681 446.537 641.936 446.265 642.328 446.004C642.73 445.743 643.072 445.613 643.355 445.613C643.539 445.613 643.713 445.689 643.876 445.841C644.039 445.993 644.121 446.162 644.121 446.347C644.121 446.607 643.566 447.542 642.458 449.15L642.23 449.525L641.985 449.851ZM645.62 450.291L645.36 450.617C644.577 451.606 643.865 452.487 643.224 453.258C643.17 453.323 643.099 453.41 643.012 453.519C642.936 453.628 642.86 453.72 642.784 453.796C642.784 453.796 642.762 453.818 642.719 453.861C642.632 453.948 642.545 453.992 642.458 453.992C642.251 453.992 642.148 453.872 642.148 453.633C642.148 453.481 642.203 453.291 642.311 453.063C642.42 452.834 642.746 452.188 643.289 451.123C643.387 450.982 643.474 450.824 643.55 450.65L643.827 450.128L644.023 449.754L644.218 449.395C644.979 447.928 645.528 447.015 645.865 446.656C646.158 446.406 646.506 446.194 646.908 446.021C647.321 445.836 647.642 445.743 647.87 445.743C648.218 445.743 648.392 445.912 648.392 446.249C648.392 446.597 647.691 447.656 646.289 449.427C646.256 449.46 646.213 449.514 646.158 449.59C646.115 449.656 646.05 449.743 645.963 449.851L645.62 450.291Z" fill="white"/>
<defs>
<linearGradient id="paint0_linear_1095_1244" x1="0" y1="0" x2="1085.35" y2="107.528" gradientUnits="userSpaceOnUse">
<stop stop-color="#6680D9"/>
<stop offset="1" stop-color="#123597"/>
</linearGradient>
<linearGradient id="paint1_linear_1095_1244" x1="515.177" y1="136.841" x2="548.829" y2="181.443" gradientUnits="userSpaceOnUse">
<stop stop-color="#AFB6EE"/>
<stop offset="0.494792" stop-color="#EAEEFF" stop-opacity="0.5"/>
<stop offset="1" stop-color="#EAEEFF" stop-opacity="0"/>
</linearGradient>
<linearGradient id="paint2_linear_1095_1244" x1="516.776" y1="254.954" x2="483.064" y2="210.398" gradientUnits="userSpaceOnUse">
<stop stop-color="#AFB6EE"/>
<stop offset="0.494792" stop-color="#EAEEFF" stop-opacity="0.5"/>
<stop offset="1" stop-color="#EAEEFF" stop-opacity="0"/>
</linearGradient>
</defs>
</svg>