<svg width="21" height="21" viewBox="0 0 21 21" fill="none" xmlns="http://www.w3.org/2000/svg">
<g id="iconoir:ip-address">
<g id="Group">
<path id="Vector" d="M2.24194 12.5964V7.59644C2.24194 6.27035 2.76873 4.99858 3.70641 4.0609C4.64409 3.12322 5.91586 2.59644 7.24194 2.59644H13.9086C15.2347 2.59644 16.5065 3.12322 17.4441 4.0609C18.3818 4.99858 18.9086 6.27035 18.9086 7.59644V12.5964C18.9086 13.9225 18.3818 15.1943 17.4441 16.132C16.5065 17.0697 15.2347 17.5964 13.9086 17.5964H7.24194C5.91586 17.5964 4.64409 17.0697 3.70641 16.132C2.76873 15.1943 2.24194 13.9225 2.24194 12.5964Z" stroke="#A8AABC" stroke-width="1.5"/>
<path id="Vector_2" d="M10.5752 12.5964V7.59644H12.6585C12.99 7.59644 13.308 7.72813 13.5424 7.96255C13.7768 8.19697 13.9085 8.51491 13.9085 8.84644C13.9085 9.17796 13.7768 9.4959 13.5424 9.73032C13.308 9.96474 12.99 10.0964 12.6585 10.0964H10.5752M8.0752 7.59644V12.5964" stroke="#A8AABC" stroke-width="1.5" stroke-linecap="round" stroke-linejoin="round"/>
</g>
</g>
</svg>
