<svg width="407" height="294" viewBox="0 0 407 294" fill="none" xmlns="http://www.w3.org/2000/svg">
<path d="M209.9 16.4165C209.9 16.4165 223.439 22.255 228.759 29.4576C247.586 54.9474 277.442 106.873 277.442 106.873L234.433 179.164L170.743 65.3287L181.541 46.8441L193.254 27.9935L209.9 16.4165Z" fill="url(#paint0_linear_1306_1524)"/>
<path d="M0.852295 228.797H80.5543L172.602 70.636L186.625 46.5416L195.858 32.4453C195.858 32.4453 200.355 27.3948 203.867 24.75C206.202 22.9914 208.764 22.3692 211.943 22.3692C215.123 22.3692 217.315 23.3117 220.15 24.75C223.05 26.2207 229.011 29.5394 229.011 29.5394L222.306 20.9185C222.306 20.9185 211.608 12.412 203.867 8.4661C198.297 5.62709 195.07 4.05317 189.02 2.47943C177.163 -0.60448 169.708 0.318336 157.649 2.47943C153.385 3.24364 150.972 3.7103 146.873 5.11368C138.993 7.81189 134.539 10.0138 128.194 15.4109C122.732 20.0582 116.461 29.5394 116.461 29.5394L0.852295 228.797Z" fill="#6680D9"/>
<path d="M197.482 277.492C197.482 277.492 183.935 271.672 178.605 264.476C159.744 239.012 129.818 187.127 129.818 187.127L172.728 114.777L236.572 228.526L225.8 247.025L214.112 265.892L197.482 277.492Z" fill="url(#paint1_linear_1306_1524)"/>
<path d="M406.241 64.8266L326.539 64.9352L234.707 223.221L220.717 247.335L211.502 261.444C211.502 261.444 207.013 266.5 203.505 269.15C201.172 270.912 198.611 271.537 195.431 271.542C192.252 271.546 190.058 270.607 187.221 269.172C184.319 267.705 178.354 264.395 178.354 264.395L185.071 273.007C185.071 273.007 195.78 281.499 203.527 285.434C209.101 288.265 212.329 289.835 218.382 291.4C230.243 294.468 237.697 293.535 249.752 291.358C254.016 290.588 256.428 290.118 260.525 288.709C268.402 286 272.852 283.792 279.189 278.386C284.646 273.731 290.904 264.241 290.904 264.241L406.241 64.8266Z" fill="#6680D9"/>
<defs>
<linearGradient id="paint0_linear_1306_1524" x1="202.387" y1="52.2977" x2="256.322" y2="123.783" gradientUnits="userSpaceOnUse">
<stop stop-color="#123597"/>
<stop offset="0.494792" stop-color="#123597" stop-opacity="0.5"/>
<stop offset="1" stop-color="#123597" stop-opacity="0"/>
</linearGradient>
<linearGradient id="paint1_linear_1306_1524" x1="204.947" y1="241.6" x2="150.915" y2="170.189" gradientUnits="userSpaceOnUse">
<stop stop-color="#123597"/>
<stop offset="0.494792" stop-color="#123597" stop-opacity="0.5"/>
<stop offset="1" stop-color="#123597" stop-opacity="0"/>
</linearGradient>
</defs>
</svg>
