<svg width="254" height="184" viewBox="0 0 254 184" fill="none" xmlns="http://www.w3.org/2000/svg">
<g id="Group 37991">
<g id="Group 37988">
<path id="Vector 3137" d="M130.865 10.4533C130.865 10.4533 139.312 14.0962 142.632 18.5901C154.379 34.494 173.006 66.8924 173.006 66.8924L146.172 111.997L106.434 40.9713L113.171 29.4382L120.479 17.6766L130.865 10.4533Z" fill="url(#paint0_linear_1306_1610)"/>
<path id="Vector 3136" d="M0.434814 142.965H50.1636L107.595 44.2831L116.345 29.2498L122.106 20.4547C122.106 20.4547 124.911 17.3034 127.102 15.6533C128.559 14.5561 130.158 14.1678 132.142 14.1678C134.125 14.1678 135.493 14.7558 137.262 15.6533C139.072 16.5709 142.791 18.6416 142.791 18.6416L138.607 13.2627C138.607 13.2627 131.932 7.95517 127.102 5.49321C123.627 3.72185 121.614 2.73983 117.839 1.75792C110.441 -0.166237 105.789 0.409539 98.2656 1.75792C95.605 2.23474 94.0993 2.5259 91.5421 3.40151C86.6253 5.08502 83.8464 6.45888 79.8879 9.82632C76.4794 12.7259 72.5667 18.6416 72.5667 18.6416L0.434814 142.965Z" fill="white"/>
</g>
<g id="Group 37989">
<path id="Vector 3137_2" d="M123.119 173.348C123.119 173.348 114.667 169.716 111.341 165.227C99.5727 149.339 80.9009 116.966 80.9009 116.966L107.674 71.8247L147.509 142.796L140.787 154.339L133.495 166.11L123.119 173.348Z" fill="url(#paint1_linear_1306_1610)"/>
<path id="Vector 3136_2" d="M253.371 40.6587L203.642 40.7265L146.345 139.487L137.616 154.532L131.867 163.335C131.867 163.335 129.066 166.49 126.877 168.143C125.422 169.242 123.824 169.633 121.84 169.635C119.856 169.638 118.488 169.052 116.717 168.157C114.907 167.242 111.185 165.176 111.185 165.176L115.376 170.549C115.376 170.549 122.058 175.848 126.891 178.303C130.369 180.07 132.383 181.049 136.16 182.026C143.56 183.94 148.211 183.358 155.733 181.999C158.393 181.519 159.898 181.225 162.454 180.346C167.369 178.656 170.146 177.278 174.1 173.906C177.504 171.001 181.409 165.08 181.409 165.08L253.371 40.6587Z" fill="white"/>
</g>
</g>
<defs>
<linearGradient id="paint0_linear_1306_1610" x1="126.177" y1="32.8408" x2="159.829" y2="77.4427" gradientUnits="userSpaceOnUse">
<stop stop-color="#AFB6EE"/>
<stop offset="0.494792" stop-color="#EAEEFF" stop-opacity="0.5"/>
<stop offset="1" stop-color="#EAEEFF" stop-opacity="0"/>
</linearGradient>
<linearGradient id="paint1_linear_1306_1610" x1="127.776" y1="150.954" x2="94.064" y2="106.398" gradientUnits="userSpaceOnUse">
<stop stop-color="#AFB6EE"/>
<stop offset="0.494792" stop-color="#EAEEFF" stop-opacity="0.5"/>
<stop offset="1" stop-color="#EAEEFF" stop-opacity="0"/>
</linearGradient>
</defs>
</svg>
