<svg width="131" height="34" viewBox="0 0 131 34" fill="none" xmlns="http://www.w3.org/2000/svg">
<g id="full_logo_name_dark 1">
<path id="Vector" d="M42.192 12.3896H42.3501C42.6531 11.9022 43.0614 11.5202 43.5752 11.2435C44.089 10.9537 44.6752 10.8088 45.3339 10.8088C45.9399 10.8088 46.4734 10.9076 46.9344 11.1052C47.3955 11.3028 47.771 11.586 48.0608 11.9549C48.3638 12.3106 48.5878 12.7453 48.7327 13.2591C48.8908 13.7597 48.9698 14.3195 48.9698 14.9387V20.8075H46.3812V15.2548C46.3812 14.5566 46.2231 14.0429 45.9069 13.7136C45.604 13.3711 45.156 13.1998 44.5632 13.1998C44.2076 13.1998 43.8914 13.2788 43.6147 13.4369C43.3513 13.5818 43.1207 13.786 42.9231 14.0495C42.7387 14.2998 42.5938 14.6028 42.4884 14.9585C42.3962 15.301 42.3501 15.6698 42.3501 16.065V20.8075H39.7615V11.125H42.192V12.3896ZM61.5399 18.4758C61.0919 19.2662 60.4858 19.9051 59.7216 20.3925C58.9708 20.88 58.0489 21.1237 56.9554 21.1237C56.2176 21.1237 55.5327 20.9985 54.9001 20.7482C54.2811 20.4848 53.7408 20.1225 53.2799 19.6614C52.8189 19.2003 52.4565 18.6602 52.1931 18.0411C51.9427 17.4087 51.8176 16.7171 51.8176 15.9663C51.8176 15.2681 51.9427 14.6094 52.1931 13.9902C52.4435 13.3579 52.7925 12.8112 53.2405 12.3501C53.6884 11.8759 54.2152 11.5004 54.8213 11.2237C55.4404 10.9471 56.1186 10.8088 56.8564 10.8088C57.6336 10.8088 58.3253 10.9405 58.9314 11.204C59.5375 11.4543 60.0446 11.81 60.4531 12.271C60.8612 12.719 61.1707 13.2525 61.3818 13.8717C61.5923 14.4908 61.698 15.1627 61.698 15.8872C61.698 15.9794 61.698 16.0584 61.698 16.1243C61.6846 16.2034 61.6778 16.2758 61.6778 16.3417C61.6649 16.4075 61.6581 16.48 61.6581 16.559H54.3666C54.4195 16.9542 54.5248 17.2968 54.6829 17.5866C54.854 17.8633 55.0583 18.1004 55.2952 18.298C55.5457 18.4824 55.8158 18.6207 56.1056 18.7129C56.3955 18.792 56.692 18.8315 56.9948 18.8315C57.5875 18.8315 58.0748 18.6997 58.457 18.4363C58.8521 18.1596 59.1621 17.8171 59.3856 17.4087L61.5399 18.4758ZM59.188 14.7213C59.1751 14.5501 59.116 14.359 59.0102 14.1483C58.9184 13.9375 58.7732 13.7399 58.5757 13.5555C58.3911 13.3711 58.1542 13.2196 57.8643 13.101C57.5875 12.9824 57.2515 12.9231 56.8564 12.9231C56.3032 12.9231 55.8158 13.0812 55.3943 13.3974C54.9727 13.7136 54.6762 14.1549 54.5051 14.7213H59.188ZM65.3912 13.3381H63.6921V11.125H65.3912V8.16093H67.98V11.125H70.3511V13.3381H67.98V17.0926C67.98 17.3165 67.9997 17.5273 68.0391 17.7249C68.092 17.9093 68.1843 18.0674 68.316 18.1991C68.5001 18.4099 68.764 18.5153 69.1062 18.5153C69.3302 18.5153 69.508 18.4955 69.6397 18.456C69.7714 18.4034 69.8969 18.3375 70.0151 18.2584L70.7462 20.5309C70.4434 20.6758 70.1141 20.7811 69.7585 20.847C69.4157 20.9261 69.0336 20.9656 68.6121 20.9656C68.1247 20.9656 67.6835 20.8931 67.2884 20.7482C66.9063 20.5901 66.5838 20.3794 66.3198 20.1159C65.7008 19.5231 65.3912 18.68 65.3912 17.5866V13.3381ZM78.0061 10.8088C78.7568 10.8088 79.4417 10.9405 80.0613 11.204C80.6934 11.4543 81.2336 11.81 81.6816 12.271C82.1425 12.719 82.4982 13.2591 82.7487 13.8914C83.0121 14.5237 83.1438 15.2153 83.1438 15.9663C83.1438 16.7171 83.0121 17.4087 82.7487 18.0411C82.4982 18.6734 82.1425 19.2201 81.6816 19.6812C81.2336 20.1291 80.6934 20.4848 80.0613 20.7482C79.4417 20.9985 78.7568 21.1237 78.0061 21.1237C77.2553 21.1237 76.5636 20.9985 75.9311 20.7482C75.312 20.4848 74.7717 20.1291 74.3108 19.6812C73.8628 19.2201 73.5071 18.6734 73.2437 18.0411C72.9933 17.4087 72.8683 16.7171 72.8683 15.9663C72.8683 15.2153 72.9933 14.5237 73.2437 13.8914C73.5071 13.2591 73.8628 12.719 74.3108 12.271C74.7717 11.81 75.312 11.4543 75.9311 11.204C76.5636 10.9405 77.2553 10.8088 78.0061 10.8088ZM78.0061 18.7327C78.3353 18.7327 78.6516 18.6734 78.9544 18.5548C79.2706 18.4231 79.5475 18.2387 79.7845 18.0015C80.0214 17.7644 80.206 17.4746 80.3377 17.1321C80.4829 16.7896 80.5549 16.401 80.5549 15.9663C80.5549 15.5315 80.4829 15.1429 80.3377 14.8004C80.206 14.4579 80.0214 14.168 79.7845 13.9309C79.5475 13.6938 79.2706 13.5159 78.9544 13.3974C78.6516 13.2657 78.3353 13.1998 78.0061 13.1998C77.6633 13.1998 77.3408 13.2657 77.0375 13.3974C76.7347 13.5159 76.4646 13.6938 76.2276 13.9309C75.9907 14.168 75.7994 14.4579 75.6547 14.8004C75.523 15.1429 75.4572 15.5315 75.4572 15.9663C75.4572 16.401 75.523 16.7896 75.6547 17.1321C75.7994 17.4746 75.9907 17.7644 76.2276 18.0015C76.4646 18.2387 76.7347 18.4231 77.0375 18.5548C77.3408 18.6734 77.6633 18.7327 78.0061 18.7327ZM90.6541 10.8088C91.4048 10.8088 92.0898 10.9405 92.7093 11.204C93.3414 11.4543 93.8816 11.81 94.3296 12.271C94.7906 12.719 95.1462 13.2591 95.3967 13.8914C95.6601 14.5237 95.7918 15.2153 95.7918 15.9663C95.7918 16.7171 95.6601 17.4087 95.3967 18.0411C95.1462 18.6734 94.7906 19.2201 94.3296 19.6812C93.8816 20.1291 93.3414 20.4848 92.7093 20.7482C92.0898 20.9985 91.4048 21.1237 90.6541 21.1237C89.9033 21.1237 89.2116 20.9985 88.5791 20.7482C87.96 20.4848 87.4197 20.1291 86.9588 19.6812C86.5108 19.2201 86.1551 18.6734 85.8917 18.0411C85.6413 17.4087 85.5164 16.7171 85.5164 15.9663C85.5164 15.2153 85.6413 14.5237 85.8917 13.8914C86.1551 13.2591 86.5108 12.719 86.9588 12.271C87.4197 11.81 87.96 11.4543 88.5791 11.204C89.2116 10.9405 89.9033 10.8088 90.6541 10.8088ZM90.6541 18.7327C90.9833 18.7327 91.2996 18.6734 91.6024 18.5548C91.9186 18.4231 92.1955 18.2387 92.4325 18.0015C92.6694 17.7644 92.854 17.4746 92.9857 17.1321C93.1309 16.7896 93.2029 16.401 93.2029 15.9663C93.2029 15.5315 93.1309 15.1429 92.9857 14.8004C92.854 14.4579 92.6694 14.168 92.4325 13.9309C92.1955 13.6938 91.9186 13.5159 91.6024 13.3974C91.2996 13.2657 90.9833 13.1998 90.6541 13.1998C90.3113 13.1998 89.9888 13.2657 89.686 13.3974C89.3827 13.5159 89.1126 13.6938 88.8756 13.9309C88.6387 14.168 88.4474 14.4579 88.3027 14.8004C88.171 15.1429 88.1052 15.5315 88.1052 15.9663C88.1052 16.401 88.171 16.7896 88.3027 17.1321C88.4474 17.4746 88.6387 17.7644 88.8756 18.0015C89.1126 18.2387 89.3827 18.4231 89.686 18.5548C89.9888 18.6734 90.3113 18.7327 90.6541 18.7327ZM98.6211 20.8075V6.65913H101.21V20.8075H98.6211ZM104.689 6.65913H107.277V14.3656H107.396L110.637 11.125H113.838V11.2831L110.242 14.7806L114.134 20.6495V20.8075H111.072L108.424 16.559L107.277 17.6854V20.8075H104.689V6.65913ZM117.873 9.722C117.649 9.722 117.431 9.68244 117.22 9.60342C117.023 9.51118 116.845 9.39265 116.687 9.24774C116.542 9.08965 116.423 8.91181 116.331 8.71421C116.252 8.51662 116.212 8.29921 116.212 8.06211C116.212 7.82501 116.252 7.6076 116.331 7.41001C116.423 7.21241 116.542 7.04115 116.687 6.89624C116.845 6.73815 117.023 6.61962 117.22 6.54055C117.431 6.44837 117.649 6.40222 117.873 6.40222C118.334 6.40222 118.729 6.56689 119.058 6.89624C119.388 7.21241 119.552 7.60102 119.552 8.06211C119.552 8.5232 119.388 8.91839 119.058 9.24774C118.729 9.56391 118.334 9.722 117.873 9.722ZM116.588 20.8075V11.125H119.177V20.8075H116.588ZM123.777 13.3381H122.078V11.125H123.777V8.16093H126.365V11.125H128.737V13.3381H126.365V17.0926C126.365 17.3165 126.386 17.5273 126.425 17.7249C126.477 17.9093 126.57 18.0674 126.701 18.1991C126.886 18.4099 127.149 18.5153 127.492 18.5153C127.716 18.5153 127.894 18.4955 128.026 18.456C128.157 18.4034 128.282 18.3375 128.401 18.2584L129.132 20.5309C128.829 20.6758 128.5 20.7811 128.144 20.847C127.802 20.9261 127.42 20.9656 126.998 20.9656C126.511 20.9656 126.069 20.8931 125.674 20.7482C125.292 20.5901 124.969 20.3794 124.706 20.1159C124.087 19.5231 123.777 18.68 123.777 17.5866V13.3381Z" fill="url(#paint0_linear_1046_1276)"/>
<g id="Group 37991">
<g id="Group 37988">
<path id="Vector 3137" d="M17.0394 6.44764C17.0394 6.44764 18.1429 6.92354 18.5766 7.51062C20.1112 9.58831 22.5447 13.8208 22.5447 13.8208L19.039 19.7133L13.8477 10.4345L14.7278 8.92781L15.6825 7.39129L17.0394 6.44764Z" fill="url(#paint1_linear_1046_1276)"/>
<path id="Vector 3136" d="M0 23.7589H6.49654L13.9994 10.8672L15.1424 8.90322L15.895 7.75422C15.895 7.75422 16.2615 7.34255 16.5478 7.12697C16.7381 6.98363 16.9469 6.93292 17.2061 6.93292C17.4653 6.93292 17.6439 7.00973 17.8751 7.12697C18.1114 7.24685 18.5973 7.51736 18.5973 7.51736L18.0508 6.81466C18.0508 6.81466 17.1788 6.1213 16.5478 5.79967C16.0938 5.56826 15.8308 5.43997 15.3376 5.31169C14.3712 5.06032 13.7635 5.13554 12.7806 5.31169C12.433 5.37398 12.2363 5.41202 11.9022 5.52641C11.2599 5.74634 10.8968 5.92582 10.3797 6.36574C9.93443 6.74455 9.42328 7.51736 9.42328 7.51736L0 23.7589Z" fill="#6680D9"/>
</g>
<g id="Group 37989">
<path id="Vector 3137_2" d="M16.0275 27.7281C16.0275 27.7281 14.9233 27.2537 14.4889 26.6672C12.9515 24.5916 10.5122 20.3624 10.5122 20.3624L14.0098 14.4652L19.2138 23.7369L18.3357 25.2448L17.3831 26.7826L16.0275 27.7281Z" fill="url(#paint2_linear_1046_1276)"/>
<path id="Vector 3136_2" d="M33.0435 10.3937L26.547 10.4025L19.0617 23.3045L17.9214 25.27L17.1703 26.42C17.1703 26.42 16.8043 26.8322 16.5184 27.0482C16.3283 27.1918 16.1195 27.2428 15.8603 27.2431C15.6011 27.2435 15.4224 27.1669 15.1911 27.05C14.9546 26.9304 14.4683 26.6606 14.4683 26.6606L15.0158 27.3625C15.0158 27.3625 15.8887 28.0547 16.5202 28.3755C16.9745 28.6063 17.2377 28.7342 17.7311 28.8618C18.6978 29.1118 19.3054 29.0358 20.2881 28.8583C20.6356 28.7955 20.8322 28.7572 21.1661 28.6424C21.8082 28.4216 22.171 28.2416 22.6875 27.801C23.1323 27.4216 23.6424 26.6481 23.6424 26.6481L33.0435 10.3937Z" fill="#6680D9"/>
</g>
</g>
</g>
<defs>
<linearGradient id="paint0_linear_1046_1276" x1="39.7615" y1="13.7629" x2="129.132" y2="13.7629" gradientUnits="userSpaceOnUse">
<stop stop-color="#6680D9"/>
<stop offset="0.9999" stop-color="#123597"/>
<stop offset="1" stop-color="#6680D9" stop-opacity="0"/>
</linearGradient>
<linearGradient id="paint1_linear_1046_1276" x1="16.4269" y1="9.37233" x2="20.8232" y2="15.1991" gradientUnits="userSpaceOnUse">
<stop stop-color="#123597"/>
<stop offset="0.494792" stop-color="#123597" stop-opacity="0.5"/>
<stop offset="1" stop-color="#123597" stop-opacity="0"/>
</linearGradient>
<linearGradient id="paint2_linear_1046_1276" x1="16.636" y1="24.8026" x2="12.2318" y2="18.9818" gradientUnits="userSpaceOnUse">
<stop stop-color="#123597"/>
<stop offset="0.494792" stop-color="#123597" stop-opacity="0.5"/>
<stop offset="1" stop-color="#123597" stop-opacity="0"/>
</linearGradient>
</defs>
</svg>
